<svg xmlns="http://www.w3.org/2000/svg" width="1000" height="560">
<rect width="1000" height="560" fill="white"/><g font-family="sans-serif" font-size="13">
<text x="55" y="28">leval_prefetch_capacity_w2_20260928 / c8_d8_s4_r3_off: 2-second bins</text>
<text x="60" y="63">Staging occupancy (%): blue=sampled peak, green=sampled mean</text>
<line x1="65" x2="970" y1="240.0" y2="240.0" stroke="#ddd"/>
<text x="25" y="244.0">0</text>
<line x1="65" x2="970" y1="198.75" y2="198.75" stroke="#ddd"/>
<text x="25" y="202.75">25</text>
<line x1="65" x2="970" y1="157.5" y2="157.5" stroke="#ddd"/>
<text x="25" y="161.5">50</text>
<line x1="65" x2="970" y1="116.25" y2="116.25" stroke="#ddd"/>
<text x="25" y="120.25">75</text>
<line x1="65" x2="970" y1="75.0" y2="75.0" stroke="#ddd"/>
<text x="25" y="79.0">100</text>
<polyline points="65.00,191.66 116.87,189.24 168.73,209.38 220.60,205.36 272.46,203.75 324.33,196.49 376.19,196.49 428.06,210.19 479.93,238.39 531.79,203.75 583.66,196.49 635.52,203.75 687.39,204.55 739.25,177.16 791.12,239.19 842.99,240.00 894.85,239.19 946.72,239.19" stroke="#0072b2" fill="none" stroke-width="1.6"/>
<circle cx="65.00" cy="191.66" r="1.5" fill="#0072b2"/>
<circle cx="116.87" cy="189.24" r="1.5" fill="#0072b2"/>
<circle cx="168.73" cy="209.38" r="1.5" fill="#0072b2"/>
<circle cx="220.60" cy="205.36" r="1.5" fill="#0072b2"/>
<circle cx="272.46" cy="203.75" r="1.5" fill="#0072b2"/>
<circle cx="324.33" cy="196.49" r="1.5" fill="#0072b2"/>
<circle cx="376.19" cy="196.49" r="1.5" fill="#0072b2"/>
<circle cx="428.06" cy="210.19" r="1.5" fill="#0072b2"/>
<circle cx="479.93" cy="238.39" r="1.5" fill="#0072b2"/>
<circle cx="531.79" cy="203.75" r="1.5" fill="#0072b2"/>
<circle cx="583.66" cy="196.49" r="1.5" fill="#0072b2"/>
<circle cx="635.52" cy="203.75" r="1.5" fill="#0072b2"/>
<circle cx="687.39" cy="204.55" r="1.5" fill="#0072b2"/>
<circle cx="739.25" cy="177.16" r="1.5" fill="#0072b2"/>
<circle cx="791.12" cy="239.19" r="1.5" fill="#0072b2"/>
<circle cx="842.99" cy="240.00" r="1.5" fill="#0072b2"/>
<circle cx="894.85" cy="239.19" r="1.5" fill="#0072b2"/>
<circle cx="946.72" cy="239.19" r="1.5" fill="#0072b2"/>
<polyline points="65.00,236.51 116.87,236.78 168.73,239.43 220.60,238.13 272.46,238.68 324.33,237.27 376.19,236.43 428.06,239.04 479.93,239.97 531.79,235.55 583.66,235.73 635.52,236.02 687.39,237.56 739.25,236.28 791.12,239.98 842.99,240.00 894.85,239.99 946.72,239.98" stroke="#009e73" fill="none" stroke-width="1.6"/>
<circle cx="65.00" cy="236.51" r="1.5" fill="#009e73"/>
<circle cx="116.87" cy="236.78" r="1.5" fill="#009e73"/>
<circle cx="168.73" cy="239.43" r="1.5" fill="#009e73"/>
<circle cx="220.60" cy="238.13" r="1.5" fill="#009e73"/>
<circle cx="272.46" cy="238.68" r="1.5" fill="#009e73"/>
<circle cx="324.33" cy="237.27" r="1.5" fill="#009e73"/>
<circle cx="376.19" cy="236.43" r="1.5" fill="#009e73"/>
<circle cx="428.06" cy="239.04" r="1.5" fill="#009e73"/>
<circle cx="479.93" cy="239.97" r="1.5" fill="#009e73"/>
<circle cx="531.79" cy="235.55" r="1.5" fill="#009e73"/>
<circle cx="583.66" cy="235.73" r="1.5" fill="#009e73"/>
<circle cx="635.52" cy="236.02" r="1.5" fill="#009e73"/>
<circle cx="687.39" cy="237.56" r="1.5" fill="#009e73"/>
<circle cx="739.25" cy="236.28" r="1.5" fill="#009e73"/>
<circle cx="791.12" cy="239.98" r="1.5" fill="#009e73"/>
<circle cx="842.99" cy="240.00" r="1.5" fill="#009e73"/>
<circle cx="894.85" cy="239.99" r="1.5" fill="#009e73"/>
<circle cx="946.72" cy="239.98" r="1.5" fill="#009e73"/>
<text x="65.0" y="262">0s</text>
<text x="291.25" y="262">9s</text>
<text x="517.5" y="262">17s</text>
<text x="743.75" y="262">26s</text>
<text x="970.0" y="262">35s</text>
<text x="60" y="308">Lookup chunk ratio (%): blue=DRAM, green=DAOS; gaps=no lookup</text>
<line x1="65" x2="970" y1="485.0" y2="485.0" stroke="#ddd"/>
<text x="25" y="489.0">0</text>
<line x1="65" x2="970" y1="443.75" y2="443.75" stroke="#ddd"/>
<text x="25" y="447.75">25</text>
<line x1="65" x2="970" y1="402.5" y2="402.5" stroke="#ddd"/>
<text x="25" y="406.5">50</text>
<line x1="65" x2="970" y1="361.25" y2="361.25" stroke="#ddd"/>
<text x="25" y="365.25">75</text>
<line x1="65" x2="970" y1="320.0" y2="320.0" stroke="#ddd"/>
<text x="25" y="324.0">100</text>
<polyline points="65.00,476.14 116.87,408.69 168.73,409.33 220.60,485.00 272.46,399.16 324.33,445.29 376.19,417.17 428.06,429.50 479.93,321.04 531.79,462.01 583.66,457.85 635.52,432.42 687.39,394.52 739.25,431.03" stroke="#0072b2" fill="none" stroke-width="1.6"/>
<circle cx="65.00" cy="476.14" r="1.5" fill="#0072b2"/>
<circle cx="116.87" cy="408.69" r="1.5" fill="#0072b2"/>
<circle cx="168.73" cy="409.33" r="1.5" fill="#0072b2"/>
<circle cx="220.60" cy="485.00" r="1.5" fill="#0072b2"/>
<circle cx="272.46" cy="399.16" r="1.5" fill="#0072b2"/>
<circle cx="324.33" cy="445.29" r="1.5" fill="#0072b2"/>
<circle cx="376.19" cy="417.17" r="1.5" fill="#0072b2"/>
<circle cx="428.06" cy="429.50" r="1.5" fill="#0072b2"/>
<circle cx="479.93" cy="321.04" r="1.5" fill="#0072b2"/>
<circle cx="531.79" cy="462.01" r="1.5" fill="#0072b2"/>
<circle cx="583.66" cy="457.85" r="1.5" fill="#0072b2"/>
<circle cx="635.52" cy="432.42" r="1.5" fill="#0072b2"/>
<circle cx="687.39" cy="394.52" r="1.5" fill="#0072b2"/>
<circle cx="739.25" cy="431.03" r="1.5" fill="#0072b2"/>
<polyline points="65.00,485.00 116.87,485.00 168.73,485.00 220.60,485.00 272.46,485.00 324.33,407.35 376.19,409.96 428.06,429.50 479.93,485.00 531.79,370.04 583.66,347.85 635.52,372.58 687.39,411.37 739.25,375.21" stroke="#009e73" fill="none" stroke-width="1.6"/>
<circle cx="65.00" cy="485.00" r="1.5" fill="#009e73"/>
<circle cx="116.87" cy="485.00" r="1.5" fill="#009e73"/>
<circle cx="168.73" cy="485.00" r="1.5" fill="#009e73"/>
<circle cx="220.60" cy="485.00" r="1.5" fill="#009e73"/>
<circle cx="272.46" cy="485.00" r="1.5" fill="#009e73"/>
<circle cx="324.33" cy="407.35" r="1.5" fill="#009e73"/>
<circle cx="376.19" cy="409.96" r="1.5" fill="#009e73"/>
<circle cx="428.06" cy="429.50" r="1.5" fill="#009e73"/>
<circle cx="479.93" cy="485.00" r="1.5" fill="#009e73"/>
<circle cx="531.79" cy="370.04" r="1.5" fill="#009e73"/>
<circle cx="583.66" cy="347.85" r="1.5" fill="#009e73"/>
<circle cx="635.52" cy="372.58" r="1.5" fill="#009e73"/>
<circle cx="687.39" cy="411.37" r="1.5" fill="#009e73"/>
<circle cx="739.25" cy="375.21" r="1.5" fill="#009e73"/>
<text x="65.0" y="507">0s</text>
<text x="291.25" y="507">9s</text>
<text x="517.5" y="507">17s</text>
<text x="743.75" y="507">26s</text>
<text x="970.0" y="507">35s</text>
<text x="60" y="545">Sampled occupancy, not GPU utilization. Hit ratios use initial CPU-tier candidate chunks.</text></g></svg>