<svg xmlns="http://www.w3.org/2000/svg" width="1000" height="560">
<rect width="1000" height="560" fill="white"/><g font-family="sans-serif" font-size="13">
<text x="55" y="28">leval_prefetch_w2_20260928 / c8_r2_off: 2-second bins</text>
<text x="60" y="63">Staging occupancy (%): blue=sampled peak, green=sampled mean</text>
<line x1="65" x2="970" y1="240.0" y2="240.0" stroke="#ddd"/>
<text x="25" y="244.0">0</text>
<line x1="65" x2="970" y1="198.75" y2="198.75" stroke="#ddd"/>
<text x="25" y="202.75">25</text>
<line x1="65" x2="970" y1="157.5" y2="157.5" stroke="#ddd"/>
<text x="25" y="161.5">50</text>
<line x1="65" x2="970" y1="116.25" y2="116.25" stroke="#ddd"/>
<text x="25" y="120.25">75</text>
<line x1="65" x2="970" y1="75.0" y2="75.0" stroke="#ddd"/>
<text x="25" y="79.0">100</text>
<polyline points="65.00,215.02 116.22,214.22 167.45,223.48 218.67,222.28 269.89,221.47 321.12,221.47 372.34,218.25 423.56,224.69 474.79,239.60 526.01,221.87 577.23,218.25 628.46,221.87 679.68,222.28 730.90,218.65 782.13,239.60 833.35,239.60 884.57,239.60 935.80,240.00" stroke="#0072b2" fill="none" stroke-width="1.6"/>
<circle cx="65.00" cy="215.02" r="1.5" fill="#0072b2"/>
<circle cx="116.22" cy="214.22" r="1.5" fill="#0072b2"/>
<circle cx="167.45" cy="223.48" r="1.5" fill="#0072b2"/>
<circle cx="218.67" cy="222.28" r="1.5" fill="#0072b2"/>
<circle cx="269.89" cy="221.47" r="1.5" fill="#0072b2"/>
<circle cx="321.12" cy="221.47" r="1.5" fill="#0072b2"/>
<circle cx="372.34" cy="218.25" r="1.5" fill="#0072b2"/>
<circle cx="423.56" cy="224.69" r="1.5" fill="#0072b2"/>
<circle cx="474.79" cy="239.60" r="1.5" fill="#0072b2"/>
<circle cx="526.01" cy="221.87" r="1.5" fill="#0072b2"/>
<circle cx="577.23" cy="218.25" r="1.5" fill="#0072b2"/>
<circle cx="628.46" cy="221.87" r="1.5" fill="#0072b2"/>
<circle cx="679.68" cy="222.28" r="1.5" fill="#0072b2"/>
<circle cx="730.90" cy="218.65" r="1.5" fill="#0072b2"/>
<circle cx="782.13" cy="239.60" r="1.5" fill="#0072b2"/>
<circle cx="833.35" cy="239.60" r="1.5" fill="#0072b2"/>
<circle cx="884.57" cy="239.60" r="1.5" fill="#0072b2"/>
<circle cx="935.80" cy="240.00" r="1.5" fill="#0072b2"/>
<polyline points="65.00,238.75 116.22,238.27 167.45,239.40 218.67,239.33 269.89,238.71 321.12,239.09 372.34,237.88 423.56,239.07 474.79,239.99 526.01,235.18 577.23,238.09 628.46,237.71 679.68,237.50 730.90,238.75 782.13,240.00 833.35,240.00 884.57,240.00 935.80,240.00" stroke="#009e73" fill="none" stroke-width="1.6"/>
<circle cx="65.00" cy="238.75" r="1.5" fill="#009e73"/>
<circle cx="116.22" cy="238.27" r="1.5" fill="#009e73"/>
<circle cx="167.45" cy="239.40" r="1.5" fill="#009e73"/>
<circle cx="218.67" cy="239.33" r="1.5" fill="#009e73"/>
<circle cx="269.89" cy="238.71" r="1.5" fill="#009e73"/>
<circle cx="321.12" cy="239.09" r="1.5" fill="#009e73"/>
<circle cx="372.34" cy="237.88" r="1.5" fill="#009e73"/>
<circle cx="423.56" cy="239.07" r="1.5" fill="#009e73"/>
<circle cx="474.79" cy="239.99" r="1.5" fill="#009e73"/>
<circle cx="526.01" cy="235.18" r="1.5" fill="#009e73"/>
<circle cx="577.23" cy="238.09" r="1.5" fill="#009e73"/>
<circle cx="628.46" cy="237.71" r="1.5" fill="#009e73"/>
<circle cx="679.68" cy="237.50" r="1.5" fill="#009e73"/>
<circle cx="730.90" cy="238.75" r="1.5" fill="#009e73"/>
<circle cx="782.13" cy="240.00" r="1.5" fill="#009e73"/>
<circle cx="833.35" cy="240.00" r="1.5" fill="#009e73"/>
<circle cx="884.57" cy="240.00" r="1.5" fill="#009e73"/>
<circle cx="935.80" cy="240.00" r="1.5" fill="#009e73"/>
<text x="65.0" y="262">0s</text>
<text x="291.25" y="262">9s</text>
<text x="517.5" y="262">18s</text>
<text x="743.75" y="262">27s</text>
<text x="970.0" y="262">35s</text>
<text x="60" y="308">Lookup chunk ratio (%): blue=DRAM, green=DAOS; gaps=no lookup</text>
<line x1="65" x2="970" y1="485.0" y2="485.0" stroke="#ddd"/>
<text x="25" y="489.0">0</text>
<line x1="65" x2="970" y1="443.75" y2="443.75" stroke="#ddd"/>
<text x="25" y="447.75">25</text>
<line x1="65" x2="970" y1="402.5" y2="402.5" stroke="#ddd"/>
<text x="25" y="406.5">50</text>
<line x1="65" x2="970" y1="361.25" y2="361.25" stroke="#ddd"/>
<text x="25" y="365.25">75</text>
<line x1="65" x2="970" y1="320.0" y2="320.0" stroke="#ddd"/>
<text x="25" y="324.0">100</text>
<polyline points="65.00,485.00 116.22,485.00 167.45,365.89 218.67,485.00 269.89,443.03 321.12,445.29 372.34,422.50 423.56,401.41 474.79,320.00 526.01,462.01 577.23,457.85 628.46,438.07 679.68,425.04 730.90,420.34" stroke="#0072b2" fill="none" stroke-width="1.6"/>
<circle cx="65.00" cy="485.00" r="1.5" fill="#0072b2"/>
<circle cx="116.22" cy="485.00" r="1.5" fill="#0072b2"/>
<circle cx="167.45" cy="365.89" r="1.5" fill="#0072b2"/>
<circle cx="218.67" cy="485.00" r="1.5" fill="#0072b2"/>
<circle cx="269.89" cy="443.03" r="1.5" fill="#0072b2"/>
<circle cx="321.12" cy="445.29" r="1.5" fill="#0072b2"/>
<circle cx="372.34" cy="422.50" r="1.5" fill="#0072b2"/>
<circle cx="423.56" cy="401.41" r="1.5" fill="#0072b2"/>
<circle cx="474.79" cy="320.00" r="1.5" fill="#0072b2"/>
<circle cx="526.01" cy="462.01" r="1.5" fill="#0072b2"/>
<circle cx="577.23" cy="457.85" r="1.5" fill="#0072b2"/>
<circle cx="628.46" cy="438.07" r="1.5" fill="#0072b2"/>
<circle cx="679.68" cy="425.04" r="1.5" fill="#0072b2"/>
<circle cx="730.90" cy="420.34" r="1.5" fill="#0072b2"/>
<polyline points="65.00,485.00 116.22,485.00 167.45,485.00 218.67,485.00 269.89,441.13 321.12,407.35 372.34,410.62 423.56,431.21 474.79,485.00 526.01,370.04 577.23,347.85 628.46,366.93 679.68,380.84 730.90,386.15" stroke="#009e73" fill="none" stroke-width="1.6"/>
<circle cx="65.00" cy="485.00" r="1.5" fill="#009e73"/>
<circle cx="116.22" cy="485.00" r="1.5" fill="#009e73"/>
<circle cx="167.45" cy="485.00" r="1.5" fill="#009e73"/>
<circle cx="218.67" cy="485.00" r="1.5" fill="#009e73"/>
<circle cx="269.89" cy="441.13" r="1.5" fill="#009e73"/>
<circle cx="321.12" cy="407.35" r="1.5" fill="#009e73"/>
<circle cx="372.34" cy="410.62" r="1.5" fill="#009e73"/>
<circle cx="423.56" cy="431.21" r="1.5" fill="#009e73"/>
<circle cx="474.79" cy="485.00" r="1.5" fill="#009e73"/>
<circle cx="526.01" cy="370.04" r="1.5" fill="#009e73"/>
<circle cx="577.23" cy="347.85" r="1.5" fill="#009e73"/>
<circle cx="628.46" cy="366.93" r="1.5" fill="#009e73"/>
<circle cx="679.68" cy="380.84" r="1.5" fill="#009e73"/>
<circle cx="730.90" cy="386.15" r="1.5" fill="#009e73"/>
<text x="65.0" y="507">0s</text>
<text x="291.25" y="507">9s</text>
<text x="517.5" y="507">18s</text>
<text x="743.75" y="507">27s</text>
<text x="970.0" y="507">35s</text>
<text x="60" y="545">Sampled occupancy, not GPU utilization. Hit ratios use initial CPU-tier candidate chunks.</text></g></svg>