<svg xmlns="http://www.w3.org/2000/svg" width="1000" height="560">
<rect width="1000" height="560" fill="white"/><g font-family="sans-serif" font-size="13">
<text x="55" y="28">realqa_placement_20261002_balanced / c8_s10_placement_balanced: 2-second bins</text>
<text x="60" y="63">Staging occupancy (%): blue=sampled peak, green=sampled mean</text>
<line x1="65" x2="970" y1="240.0" y2="240.0" stroke="#ddd"/>
<text x="25" y="244.0">0</text>
<line x1="65" x2="970" y1="198.75" y2="198.75" stroke="#ddd"/>
<text x="25" y="202.75">25</text>
<line x1="65" x2="970" y1="157.5" y2="157.5" stroke="#ddd"/>
<text x="25" y="161.5">50</text>
<line x1="65" x2="970" y1="116.25" y2="116.25" stroke="#ddd"/>
<text x="25" y="120.25">75</text>
<line x1="65" x2="970" y1="75.0" y2="75.0" stroke="#ddd"/>
<text x="25" y="79.0">100</text>
<polyline points="65.00,240.00 67.01,150.09 69.03,150.09 71.04,154.44 73.06,148.64 75.07,150.09 77.08,152.99 79.10,147.19 81.11,150.09 83.13,151.54 85.14,160.24 87.15,151.54 89.17,151.54 91.18,150.09 93.19,150.09 95.21,154.44 97.22,155.89 99.24,238.55 101.25,238.55 103.26,238.55 105.28,148.64 107.29,147.19 109.31,161.69 111.32,152.99 113.33,154.44 115.35,151.54 117.36,148.64 119.38,171.84 121.39,148.64 123.40,154.44 125.42,148.64 127.43,152.99 129.45,148.64 131.46,148.64 133.47,161.69 135.49,238.55 137.50,238.55 139.52,238.55 141.53,160.24 143.54,163.14 145.56,151.54 147.57,163.14 149.58,155.89 151.60,151.54 153.61,155.89 155.63,161.69 157.64,150.09 159.65,147.19 161.67,150.09 163.68,147.19 165.70,148.64 167.71,148.64 169.72,155.89 171.74,161.69 173.75,152.99 175.77,238.55 177.78,238.55 179.79,240.00 181.81,122.53 183.82,142.84 185.84,164.59 187.85,238.55 189.86,240.00 191.88,152.99 193.89,112.38 195.91,147.19 197.92,238.55 199.93,238.55 201.95,144.29 203.96,94.98 205.97,110.93 207.99,160.24 210.00,238.55 212.02,196.49 214.03,147.19 216.04,94.98 218.06,125.43 220.07,173.29 222.09,163.14 224.10,238.55 226.11,122.53 228.13,122.53 230.14,115.28 232.16,238.55 234.17,142.84 236.18,147.19 238.20,141.39 240.21,152.99 242.23,121.08 244.24,161.69 246.25,148.64 248.27,151.54 250.28,151.54 252.30,150.09 254.31,240.00 256.32,148.64 258.34,151.54 260.35,157.34 262.36,154.44 264.38,148.64 266.39,147.19 268.41,150.09 270.42,152.99 272.43,150.09 274.45,126.88 276.46,238.55 278.48,138.49 280.49,238.55 282.50,115.28 284.52,142.84 286.53,108.03 288.55,134.14 290.56,123.98 292.57,160.24 294.59,134.14 296.60,99.33 298.62,238.55 300.63,144.29 302.64,238.55 304.66,145.74 306.67,103.68 308.68,134.14 310.70,240.00 312.71,152.99 314.73,168.94 316.74,97.88 318.75,148.64 320.77,177.64 322.78,147.19 324.80,238.55 326.81,139.94 328.82,121.08 330.84,157.34 332.85,238.55 334.87,164.59 336.88,238.55 338.89,151.54 340.91,161.69 342.92,116.73 344.94,83.38 346.95,163.14 348.96,161.69 350.98,154.44 352.99,147.19 355.01,151.54 357.02,157.34 359.03,240.00 361.05,170.39 363.06,161.69 365.07,154.44 367.09,147.19 369.10,161.69 371.12,152.99 373.13,150.09 375.14,150.09 377.16,150.09 379.17,150.09 381.19,238.55 383.20,102.23 385.21,126.88 387.23,132.69 389.24,109.48 391.26,164.59 393.27,199.39 395.28,145.74 397.30,171.84 399.31,112.38 401.33,122.53 403.34,160.24 405.35,126.88 407.37,238.55 409.38,138.49 411.40,142.84 413.41,154.44 415.42,238.55 417.44,141.39 419.45,118.18 421.46,132.69 423.48,109.48 425.49,161.69 427.51,173.29 429.52,238.55 431.53,122.53 433.55,115.28 435.56,134.14 437.58,168.94 439.59,238.55 441.60,167.49 443.62,157.34 445.63,161.69 447.65,142.84 449.66,108.03 451.67,150.09 453.69,154.44 455.70,160.24 457.72,238.55 459.73,238.55 461.74,157.34 463.76,152.99 465.77,144.29 467.79,147.19 469.80,158.79 471.81,161.69 473.83,151.54 475.84,147.19 477.85,150.09 479.87,154.44 481.88,161.69 483.90,152.99 485.91,170.39 487.92,238.55 489.94,160.24 491.95,119.63 493.97,154.44 495.98,147.19 497.99,238.55 500.01,238.55 502.02,113.83 504.04,158.79 506.05,147.19 508.06,167.49 510.08,238.55 512.09,238.55 514.11,100.78 516.12,122.53 518.13,123.98 520.15,238.55 522.16,238.55 524.17,150.09 526.19,150.09 528.20,152.99 530.22,132.69 532.23,238.55 534.24,238.55 536.26,93.53 538.27,157.34 540.29,83.38 542.30,106.58 544.31,240.00 546.33,102.23 548.34,152.99 550.36,157.34 552.37,134.14 554.38,138.49 556.40,166.04 558.41,238.55 560.43,238.55 562.44,125.43 564.45,155.89 566.47,158.79 568.48,148.64 570.50,151.54 572.51,147.19 574.52,147.19 576.54,161.69 578.55,152.99 580.56,152.99 582.58,150.09 584.59,238.55 586.61,238.55 588.62,122.53 590.63,115.28 592.65,134.14 594.66,183.44 596.68,238.55 598.69,83.38 600.70,83.38 602.72,121.08 604.73,116.73 606.75,238.55 608.76,238.55 610.77,135.59 612.79,121.08 614.80,99.33 616.82,150.09 618.83,238.55 620.84,87.73 622.86,109.48 624.87,99.33 626.89,168.94 628.90,237.10 630.91,238.55 632.93,96.43 634.94,137.04 636.95,145.74 638.97,147.19 640.98,238.55 643.00,238.55 645.01,151.54 647.02,150.09 649.04,150.09 651.05,151.54 653.07,137.04 655.08,135.59 657.09,106.58 659.11,151.54 661.12,161.69 663.14,238.55 665.15,161.69 667.16,161.69 669.18,161.69 671.19,148.64 673.21,152.99 675.22,155.89 677.23,154.44 679.25,152.99 681.26,161.69 683.27,150.09 685.29,238.55 687.30,173.29 689.32,151.54 691.33,144.29 693.34,141.39 695.36,148.64 697.37,238.55 699.39,147.19 701.40,115.28 703.41,83.38 705.43,121.08 707.44,160.24 709.46,238.55 711.47,157.34 713.48,150.09 715.50,131.24 717.51,157.34 719.53,129.79 721.54,158.79 723.55,171.84 725.57,145.74 727.58,92.08 729.60,123.98 731.61,160.24 733.62,137.04 735.64,116.73 737.65,93.53 739.66,142.84 741.68,116.73 743.69,150.09 745.71,157.34 747.72,161.69 749.73,148.64 751.75,150.09 753.76,195.04 755.78,151.54 757.79,161.69 759.80,145.74 761.82,154.44 763.83,161.69 765.85,151.54 767.86,155.89 769.87,116.73 771.89,150.09 773.90,119.63 775.92,148.64 777.93,151.54 779.94,122.53 781.96,92.08 783.97,158.79 785.99,99.33 788.00,123.98 790.01,148.64 792.03,168.94 794.04,170.39 796.05,89.18 798.07,155.89 800.08,93.53 802.10,137.04 804.11,151.54 806.12,131.24 808.14,171.84 810.15,125.43 812.17,147.19 814.18,132.69 816.19,116.73 818.21,238.55 820.22,131.24 822.24,142.84 824.25,144.29 826.26,163.14 828.28,158.79 830.29,134.14 832.31,83.38 834.32,155.89 836.33,109.48 838.35,97.88 840.36,161.69 842.38,173.29 844.39,238.55 846.40,150.09 848.42,144.29 850.43,150.09 852.44,148.64 854.46,83.38 856.47,161.69 858.49,154.44 860.50,151.54 862.51,150.09 864.53,145.74 866.54,183.44 868.56,161.69 870.57,142.84 872.58,161.69 874.60,147.19 876.61,151.54 878.63,144.29 880.64,168.94 882.65,155.89 884.67,238.55 886.68,121.08 888.70,147.19 890.71,122.53 892.72,139.94 894.74,144.29 896.75,163.14 898.76,145.74 900.78,238.55 902.79,105.13 904.81,125.43 906.82,108.03 908.83,157.34 910.85,144.29 912.86,131.24 914.88,158.79 916.89,103.68 918.90,179.09 920.92,145.74 922.93,166.04 924.95,128.33 926.96,238.55 928.97,148.64 930.99,99.33 933.00,105.13 935.02,163.14 937.03,148.64 939.04,142.84 941.06,160.24 943.07,83.38 945.09,125.43 947.10,108.03 949.11,132.69 951.13,158.79 953.14,119.63 955.15,139.94 957.17,110.93 959.18,132.69 961.20,238.55 963.21,237.10 965.22,113.83 967.24,238.55 969.25,240.00" stroke="#0072b2" fill="none" stroke-width="1.6"/>
<circle cx="65.00" cy="240.00" r="1.5" fill="#0072b2"/>
<circle cx="67.01" cy="150.09" r="1.5" fill="#0072b2"/>
<circle cx="69.03" cy="150.09" r="1.5" fill="#0072b2"/>
<circle cx="71.04" cy="154.44" r="1.5" fill="#0072b2"/>
<circle cx="73.06" cy="148.64" r="1.5" fill="#0072b2"/>
<circle cx="75.07" cy="150.09" r="1.5" fill="#0072b2"/>
<circle cx="77.08" cy="152.99" r="1.5" fill="#0072b2"/>
<circle cx="79.10" cy="147.19" r="1.5" fill="#0072b2"/>
<circle cx="81.11" cy="150.09" r="1.5" fill="#0072b2"/>
<circle cx="83.13" cy="151.54" r="1.5" fill="#0072b2"/>
<circle cx="85.14" cy="160.24" r="1.5" fill="#0072b2"/>
<circle cx="87.15" cy="151.54" r="1.5" fill="#0072b2"/>
<circle cx="89.17" cy="151.54" r="1.5" fill="#0072b2"/>
<circle cx="91.18" cy="150.09" r="1.5" fill="#0072b2"/>
<circle cx="93.19" cy="150.09" r="1.5" fill="#0072b2"/>
<circle cx="95.21" cy="154.44" r="1.5" fill="#0072b2"/>
<circle cx="97.22" cy="155.89" r="1.5" fill="#0072b2"/>
<circle cx="99.24" cy="238.55" r="1.5" fill="#0072b2"/>
<circle cx="101.25" cy="238.55" r="1.5" fill="#0072b2"/>
<circle cx="103.26" cy="238.55" r="1.5" fill="#0072b2"/>
<circle cx="105.28" cy="148.64" r="1.5" fill="#0072b2"/>
<circle cx="107.29" cy="147.19" r="1.5" fill="#0072b2"/>
<circle cx="109.31" cy="161.69" r="1.5" fill="#0072b2"/>
<circle cx="111.32" cy="152.99" r="1.5" fill="#0072b2"/>
<circle cx="113.33" cy="154.44" r="1.5" fill="#0072b2"/>
<circle cx="115.35" cy="151.54" r="1.5" fill="#0072b2"/>
<circle cx="117.36" cy="148.64" r="1.5" fill="#0072b2"/>
<circle cx="119.38" cy="171.84" r="1.5" fill="#0072b2"/>
<circle cx="121.39" cy="148.64" r="1.5" fill="#0072b2"/>
<circle cx="123.40" cy="154.44" r="1.5" fill="#0072b2"/>
<circle cx="125.42" cy="148.64" r="1.5" fill="#0072b2"/>
<circle cx="127.43" cy="152.99" r="1.5" fill="#0072b2"/>
<circle cx="129.45" cy="148.64" r="1.5" fill="#0072b2"/>
<circle cx="131.46" cy="148.64" r="1.5" fill="#0072b2"/>
<circle cx="133.47" cy="161.69" r="1.5" fill="#0072b2"/>
<circle cx="135.49" cy="238.55" r="1.5" fill="#0072b2"/>
<circle cx="137.50" cy="238.55" r="1.5" fill="#0072b2"/>
<circle cx="139.52" cy="238.55" r="1.5" fill="#0072b2"/>
<circle cx="141.53" cy="160.24" r="1.5" fill="#0072b2"/>
<circle cx="143.54" cy="163.14" r="1.5" fill="#0072b2"/>
<circle cx="145.56" cy="151.54" r="1.5" fill="#0072b2"/>
<circle cx="147.57" cy="163.14" r="1.5" fill="#0072b2"/>
<circle cx="149.58" cy="155.89" r="1.5" fill="#0072b2"/>
<circle cx="151.60" cy="151.54" r="1.5" fill="#0072b2"/>
<circle cx="153.61" cy="155.89" r="1.5" fill="#0072b2"/>
<circle cx="155.63" cy="161.69" r="1.5" fill="#0072b2"/>
<circle cx="157.64" cy="150.09" r="1.5" fill="#0072b2"/>
<circle cx="159.65" cy="147.19" r="1.5" fill="#0072b2"/>
<circle cx="161.67" cy="150.09" r="1.5" fill="#0072b2"/>
<circle cx="163.68" cy="147.19" r="1.5" fill="#0072b2"/>
<circle cx="165.70" cy="148.64" r="1.5" fill="#0072b2"/>
<circle cx="167.71" cy="148.64" r="1.5" fill="#0072b2"/>
<circle cx="169.72" cy="155.89" r="1.5" fill="#0072b2"/>
<circle cx="171.74" cy="161.69" r="1.5" fill="#0072b2"/>
<circle cx="173.75" cy="152.99" r="1.5" fill="#0072b2"/>
<circle cx="175.77" cy="238.55" r="1.5" fill="#0072b2"/>
<circle cx="177.78" cy="238.55" r="1.5" fill="#0072b2"/>
<circle cx="179.79" cy="240.00" r="1.5" fill="#0072b2"/>
<circle cx="181.81" cy="122.53" r="1.5" fill="#0072b2"/>
<circle cx="183.82" cy="142.84" r="1.5" fill="#0072b2"/>
<circle cx="185.84" cy="164.59" r="1.5" fill="#0072b2"/>
<circle cx="187.85" cy="238.55" r="1.5" fill="#0072b2"/>
<circle cx="189.86" cy="240.00" r="1.5" fill="#0072b2"/>
<circle cx="191.88" cy="152.99" r="1.5" fill="#0072b2"/>
<circle cx="193.89" cy="112.38" r="1.5" fill="#0072b2"/>
<circle cx="195.91" cy="147.19" r="1.5" fill="#0072b2"/>
<circle cx="197.92" cy="238.55" r="1.5" fill="#0072b2"/>
<circle cx="199.93" cy="238.55" r="1.5" fill="#0072b2"/>
<circle cx="201.95" cy="144.29" r="1.5" fill="#0072b2"/>
<circle cx="203.96" cy="94.98" r="1.5" fill="#0072b2"/>
<circle cx="205.97" cy="110.93" r="1.5" fill="#0072b2"/>
<circle cx="207.99" cy="160.24" r="1.5" fill="#0072b2"/>
<circle cx="210.00" cy="238.55" r="1.5" fill="#0072b2"/>
<circle cx="212.02" cy="196.49" r="1.5" fill="#0072b2"/>
<circle cx="214.03" cy="147.19" r="1.5" fill="#0072b2"/>
<circle cx="216.04" cy="94.98" r="1.5" fill="#0072b2"/>
<circle cx="218.06" cy="125.43" r="1.5" fill="#0072b2"/>
<circle cx="220.07" cy="173.29" r="1.5" fill="#0072b2"/>
<circle cx="222.09" cy="163.14" r="1.5" fill="#0072b2"/>
<circle cx="224.10" cy="238.55" r="1.5" fill="#0072b2"/>
<circle cx="226.11" cy="122.53" r="1.5" fill="#0072b2"/>
<circle cx="228.13" cy="122.53" r="1.5" fill="#0072b2"/>
<circle cx="230.14" cy="115.28" r="1.5" fill="#0072b2"/>
<circle cx="232.16" cy="238.55" r="1.5" fill="#0072b2"/>
<circle cx="234.17" cy="142.84" r="1.5" fill="#0072b2"/>
<circle cx="236.18" cy="147.19" r="1.5" fill="#0072b2"/>
<circle cx="238.20" cy="141.39" r="1.5" fill="#0072b2"/>
<circle cx="240.21" cy="152.99" r="1.5" fill="#0072b2"/>
<circle cx="242.23" cy="121.08" r="1.5" fill="#0072b2"/>
<circle cx="244.24" cy="161.69" r="1.5" fill="#0072b2"/>
<circle cx="246.25" cy="148.64" r="1.5" fill="#0072b2"/>
<circle cx="248.27" cy="151.54" r="1.5" fill="#0072b2"/>
<circle cx="250.28" cy="151.54" r="1.5" fill="#0072b2"/>
<circle cx="252.30" cy="150.09" r="1.5" fill="#0072b2"/>
<circle cx="254.31" cy="240.00" r="1.5" fill="#0072b2"/>
<circle cx="256.32" cy="148.64" r="1.5" fill="#0072b2"/>
<circle cx="258.34" cy="151.54" r="1.5" fill="#0072b2"/>
<circle cx="260.35" cy="157.34" r="1.5" fill="#0072b2"/>
<circle cx="262.36" cy="154.44" r="1.5" fill="#0072b2"/>
<circle cx="264.38" cy="148.64" r="1.5" fill="#0072b2"/>
<circle cx="266.39" cy="147.19" r="1.5" fill="#0072b2"/>
<circle cx="268.41" cy="150.09" r="1.5" fill="#0072b2"/>
<circle cx="270.42" cy="152.99" r="1.5" fill="#0072b2"/>
<circle cx="272.43" cy="150.09" r="1.5" fill="#0072b2"/>
<circle cx="274.45" cy="126.88" r="1.5" fill="#0072b2"/>
<circle cx="276.46" cy="238.55" r="1.5" fill="#0072b2"/>
<circle cx="278.48" cy="138.49" r="1.5" fill="#0072b2"/>
<circle cx="280.49" cy="238.55" r="1.5" fill="#0072b2"/>
<circle cx="282.50" cy="115.28" r="1.5" fill="#0072b2"/>
<circle cx="284.52" cy="142.84" r="1.5" fill="#0072b2"/>
<circle cx="286.53" cy="108.03" r="1.5" fill="#0072b2"/>
<circle cx="288.55" cy="134.14" r="1.5" fill="#0072b2"/>
<circle cx="290.56" cy="123.98" r="1.5" fill="#0072b2"/>
<circle cx="292.57" cy="160.24" r="1.5" fill="#0072b2"/>
<circle cx="294.59" cy="134.14" r="1.5" fill="#0072b2"/>
<circle cx="296.60" cy="99.33" r="1.5" fill="#0072b2"/>
<circle cx="298.62" cy="238.55" r="1.5" fill="#0072b2"/>
<circle cx="300.63" cy="144.29" r="1.5" fill="#0072b2"/>
<circle cx="302.64" cy="238.55" r="1.5" fill="#0072b2"/>
<circle cx="304.66" cy="145.74" r="1.5" fill="#0072b2"/>
<circle cx="306.67" cy="103.68" r="1.5" fill="#0072b2"/>
<circle cx="308.68" cy="134.14" r="1.5" fill="#0072b2"/>
<circle cx="310.70" cy="240.00" r="1.5" fill="#0072b2"/>
<circle cx="312.71" cy="152.99" r="1.5" fill="#0072b2"/>
<circle cx="314.73" cy="168.94" r="1.5" fill="#0072b2"/>
<circle cx="316.74" cy="97.88" r="1.5" fill="#0072b2"/>
<circle cx="318.75" cy="148.64" r="1.5" fill="#0072b2"/>
<circle cx="320.77" cy="177.64" r="1.5" fill="#0072b2"/>
<circle cx="322.78" cy="147.19" r="1.5" fill="#0072b2"/>
<circle cx="324.80" cy="238.55" r="1.5" fill="#0072b2"/>
<circle cx="326.81" cy="139.94" r="1.5" fill="#0072b2"/>
<circle cx="328.82" cy="121.08" r="1.5" fill="#0072b2"/>
<circle cx="330.84" cy="157.34" r="1.5" fill="#0072b2"/>
<circle cx="332.85" cy="238.55" r="1.5" fill="#0072b2"/>
<circle cx="334.87" cy="164.59" r="1.5" fill="#0072b2"/>
<circle cx="336.88" cy="238.55" r="1.5" fill="#0072b2"/>
<circle cx="338.89" cy="151.54" r="1.5" fill="#0072b2"/>
<circle cx="340.91" cy="161.69" r="1.5" fill="#0072b2"/>
<circle cx="342.92" cy="116.73" r="1.5" fill="#0072b2"/>
<circle cx="344.94" cy="83.38" r="1.5" fill="#0072b2"/>
<circle cx="346.95" cy="163.14" r="1.5" fill="#0072b2"/>
<circle cx="348.96" cy="161.69" r="1.5" fill="#0072b2"/>
<circle cx="350.98" cy="154.44" r="1.5" fill="#0072b2"/>
<circle cx="352.99" cy="147.19" r="1.5" fill="#0072b2"/>
<circle cx="355.01" cy="151.54" r="1.5" fill="#0072b2"/>
<circle cx="357.02" cy="157.34" r="1.5" fill="#0072b2"/>
<circle cx="359.03" cy="240.00" r="1.5" fill="#0072b2"/>
<circle cx="361.05" cy="170.39" r="1.5" fill="#0072b2"/>
<circle cx="363.06" cy="161.69" r="1.5" fill="#0072b2"/>
<circle cx="365.07" cy="154.44" r="1.5" fill="#0072b2"/>
<circle cx="367.09" cy="147.19" r="1.5" fill="#0072b2"/>
<circle cx="369.10" cy="161.69" r="1.5" fill="#0072b2"/>
<circle cx="371.12" cy="152.99" r="1.5" fill="#0072b2"/>
<circle cx="373.13" cy="150.09" r="1.5" fill="#0072b2"/>
<circle cx="375.14" cy="150.09" r="1.5" fill="#0072b2"/>
<circle cx="377.16" cy="150.09" r="1.5" fill="#0072b2"/>
<circle cx="379.17" cy="150.09" r="1.5" fill="#0072b2"/>
<circle cx="381.19" cy="238.55" r="1.5" fill="#0072b2"/>
<circle cx="383.20" cy="102.23" r="1.5" fill="#0072b2"/>
<circle cx="385.21" cy="126.88" r="1.5" fill="#0072b2"/>
<circle cx="387.23" cy="132.69" r="1.5" fill="#0072b2"/>
<circle cx="389.24" cy="109.48" r="1.5" fill="#0072b2"/>
<circle cx="391.26" cy="164.59" r="1.5" fill="#0072b2"/>
<circle cx="393.27" cy="199.39" r="1.5" fill="#0072b2"/>
<circle cx="395.28" cy="145.74" r="1.5" fill="#0072b2"/>
<circle cx="397.30" cy="171.84" r="1.5" fill="#0072b2"/>
<circle cx="399.31" cy="112.38" r="1.5" fill="#0072b2"/>
<circle cx="401.33" cy="122.53" r="1.5" fill="#0072b2"/>
<circle cx="403.34" cy="160.24" r="1.5" fill="#0072b2"/>
<circle cx="405.35" cy="126.88" r="1.5" fill="#0072b2"/>
<circle cx="407.37" cy="238.55" r="1.5" fill="#0072b2"/>
<circle cx="409.38" cy="138.49" r="1.5" fill="#0072b2"/>
<circle cx="411.40" cy="142.84" r="1.5" fill="#0072b2"/>
<circle cx="413.41" cy="154.44" r="1.5" fill="#0072b2"/>
<circle cx="415.42" cy="238.55" r="1.5" fill="#0072b2"/>
<circle cx="417.44" cy="141.39" r="1.5" fill="#0072b2"/>
<circle cx="419.45" cy="118.18" r="1.5" fill="#0072b2"/>
<circle cx="421.46" cy="132.69" r="1.5" fill="#0072b2"/>
<circle cx="423.48" cy="109.48" r="1.5" fill="#0072b2"/>
<circle cx="425.49" cy="161.69" r="1.5" fill="#0072b2"/>
<circle cx="427.51" cy="173.29" r="1.5" fill="#0072b2"/>
<circle cx="429.52" cy="238.55" r="1.5" fill="#0072b2"/>
<circle cx="431.53" cy="122.53" r="1.5" fill="#0072b2"/>
<circle cx="433.55" cy="115.28" r="1.5" fill="#0072b2"/>
<circle cx="435.56" cy="134.14" r="1.5" fill="#0072b2"/>
<circle cx="437.58" cy="168.94" r="1.5" fill="#0072b2"/>
<circle cx="439.59" cy="238.55" r="1.5" fill="#0072b2"/>
<circle cx="441.60" cy="167.49" r="1.5" fill="#0072b2"/>
<circle cx="443.62" cy="157.34" r="1.5" fill="#0072b2"/>
<circle cx="445.63" cy="161.69" r="1.5" fill="#0072b2"/>
<circle cx="447.65" cy="142.84" r="1.5" fill="#0072b2"/>
<circle cx="449.66" cy="108.03" r="1.5" fill="#0072b2"/>
<circle cx="451.67" cy="150.09" r="1.5" fill="#0072b2"/>
<circle cx="453.69" cy="154.44" r="1.5" fill="#0072b2"/>
<circle cx="455.70" cy="160.24" r="1.5" fill="#0072b2"/>
<circle cx="457.72" cy="238.55" r="1.5" fill="#0072b2"/>
<circle cx="459.73" cy="238.55" r="1.5" fill="#0072b2"/>
<circle cx="461.74" cy="157.34" r="1.5" fill="#0072b2"/>
<circle cx="463.76" cy="152.99" r="1.5" fill="#0072b2"/>
<circle cx="465.77" cy="144.29" r="1.5" fill="#0072b2"/>
<circle cx="467.79" cy="147.19" r="1.5" fill="#0072b2"/>
<circle cx="469.80" cy="158.79" r="1.5" fill="#0072b2"/>
<circle cx="471.81" cy="161.69" r="1.5" fill="#0072b2"/>
<circle cx="473.83" cy="151.54" r="1.5" fill="#0072b2"/>
<circle cx="475.84" cy="147.19" r="1.5" fill="#0072b2"/>
<circle cx="477.85" cy="150.09" r="1.5" fill="#0072b2"/>
<circle cx="479.87" cy="154.44" r="1.5" fill="#0072b2"/>
<circle cx="481.88" cy="161.69" r="1.5" fill="#0072b2"/>
<circle cx="483.90" cy="152.99" r="1.5" fill="#0072b2"/>
<circle cx="485.91" cy="170.39" r="1.5" fill="#0072b2"/>
<circle cx="487.92" cy="238.55" r="1.5" fill="#0072b2"/>
<circle cx="489.94" cy="160.24" r="1.5" fill="#0072b2"/>
<circle cx="491.95" cy="119.63" r="1.5" fill="#0072b2"/>
<circle cx="493.97" cy="154.44" r="1.5" fill="#0072b2"/>
<circle cx="495.98" cy="147.19" r="1.5" fill="#0072b2"/>
<circle cx="497.99" cy="238.55" r="1.5" fill="#0072b2"/>
<circle cx="500.01" cy="238.55" r="1.5" fill="#0072b2"/>
<circle cx="502.02" cy="113.83" r="1.5" fill="#0072b2"/>
<circle cx="504.04" cy="158.79" r="1.5" fill="#0072b2"/>
<circle cx="506.05" cy="147.19" r="1.5" fill="#0072b2"/>
<circle cx="508.06" cy="167.49" r="1.5" fill="#0072b2"/>
<circle cx="510.08" cy="238.55" r="1.5" fill="#0072b2"/>
<circle cx="512.09" cy="238.55" r="1.5" fill="#0072b2"/>
<circle cx="514.11" cy="100.78" r="1.5" fill="#0072b2"/>
<circle cx="516.12" cy="122.53" r="1.5" fill="#0072b2"/>
<circle cx="518.13" cy="123.98" r="1.5" fill="#0072b2"/>
<circle cx="520.15" cy="238.55" r="1.5" fill="#0072b2"/>
<circle cx="522.16" cy="238.55" r="1.5" fill="#0072b2"/>
<circle cx="524.17" cy="150.09" r="1.5" fill="#0072b2"/>
<circle cx="526.19" cy="150.09" r="1.5" fill="#0072b2"/>
<circle cx="528.20" cy="152.99" r="1.5" fill="#0072b2"/>
<circle cx="530.22" cy="132.69" r="1.5" fill="#0072b2"/>
<circle cx="532.23" cy="238.55" r="1.5" fill="#0072b2"/>
<circle cx="534.24" cy="238.55" r="1.5" fill="#0072b2"/>
<circle cx="536.26" cy="93.53" r="1.5" fill="#0072b2"/>
<circle cx="538.27" cy="157.34" r="1.5" fill="#0072b2"/>
<circle cx="540.29" cy="83.38" r="1.5" fill="#0072b2"/>
<circle cx="542.30" cy="106.58" r="1.5" fill="#0072b2"/>
<circle cx="544.31" cy="240.00" r="1.5" fill="#0072b2"/>
<circle cx="546.33" cy="102.23" r="1.5" fill="#0072b2"/>
<circle cx="548.34" cy="152.99" r="1.5" fill="#0072b2"/>
<circle cx="550.36" cy="157.34" r="1.5" fill="#0072b2"/>
<circle cx="552.37" cy="134.14" r="1.5" fill="#0072b2"/>
<circle cx="554.38" cy="138.49" r="1.5" fill="#0072b2"/>
<circle cx="556.40" cy="166.04" r="1.5" fill="#0072b2"/>
<circle cx="558.41" cy="238.55" r="1.5" fill="#0072b2"/>
<circle cx="560.43" cy="238.55" r="1.5" fill="#0072b2"/>
<circle cx="562.44" cy="125.43" r="1.5" fill="#0072b2"/>
<circle cx="564.45" cy="155.89" r="1.5" fill="#0072b2"/>
<circle cx="566.47" cy="158.79" r="1.5" fill="#0072b2"/>
<circle cx="568.48" cy="148.64" r="1.5" fill="#0072b2"/>
<circle cx="570.50" cy="151.54" r="1.5" fill="#0072b2"/>
<circle cx="572.51" cy="147.19" r="1.5" fill="#0072b2"/>
<circle cx="574.52" cy="147.19" r="1.5" fill="#0072b2"/>
<circle cx="576.54" cy="161.69" r="1.5" fill="#0072b2"/>
<circle cx="578.55" cy="152.99" r="1.5" fill="#0072b2"/>
<circle cx="580.56" cy="152.99" r="1.5" fill="#0072b2"/>
<circle cx="582.58" cy="150.09" r="1.5" fill="#0072b2"/>
<circle cx="584.59" cy="238.55" r="1.5" fill="#0072b2"/>
<circle cx="586.61" cy="238.55" r="1.5" fill="#0072b2"/>
<circle cx="588.62" cy="122.53" r="1.5" fill="#0072b2"/>
<circle cx="590.63" cy="115.28" r="1.5" fill="#0072b2"/>
<circle cx="592.65" cy="134.14" r="1.5" fill="#0072b2"/>
<circle cx="594.66" cy="183.44" r="1.5" fill="#0072b2"/>
<circle cx="596.68" cy="238.55" r="1.5" fill="#0072b2"/>
<circle cx="598.69" cy="83.38" r="1.5" fill="#0072b2"/>
<circle cx="600.70" cy="83.38" r="1.5" fill="#0072b2"/>
<circle cx="602.72" cy="121.08" r="1.5" fill="#0072b2"/>
<circle cx="604.73" cy="116.73" r="1.5" fill="#0072b2"/>
<circle cx="606.75" cy="238.55" r="1.5" fill="#0072b2"/>
<circle cx="608.76" cy="238.55" r="1.5" fill="#0072b2"/>
<circle cx="610.77" cy="135.59" r="1.5" fill="#0072b2"/>
<circle cx="612.79" cy="121.08" r="1.5" fill="#0072b2"/>
<circle cx="614.80" cy="99.33" r="1.5" fill="#0072b2"/>
<circle cx="616.82" cy="150.09" r="1.5" fill="#0072b2"/>
<circle cx="618.83" cy="238.55" r="1.5" fill="#0072b2"/>
<circle cx="620.84" cy="87.73" r="1.5" fill="#0072b2"/>
<circle cx="622.86" cy="109.48" r="1.5" fill="#0072b2"/>
<circle cx="624.87" cy="99.33" r="1.5" fill="#0072b2"/>
<circle cx="626.89" cy="168.94" r="1.5" fill="#0072b2"/>
<circle cx="628.90" cy="237.10" r="1.5" fill="#0072b2"/>
<circle cx="630.91" cy="238.55" r="1.5" fill="#0072b2"/>
<circle cx="632.93" cy="96.43" r="1.5" fill="#0072b2"/>
<circle cx="634.94" cy="137.04" r="1.5" fill="#0072b2"/>
<circle cx="636.95" cy="145.74" r="1.5" fill="#0072b2"/>
<circle cx="638.97" cy="147.19" r="1.5" fill="#0072b2"/>
<circle cx="640.98" cy="238.55" r="1.5" fill="#0072b2"/>
<circle cx="643.00" cy="238.55" r="1.5" fill="#0072b2"/>
<circle cx="645.01" cy="151.54" r="1.5" fill="#0072b2"/>
<circle cx="647.02" cy="150.09" r="1.5" fill="#0072b2"/>
<circle cx="649.04" cy="150.09" r="1.5" fill="#0072b2"/>
<circle cx="651.05" cy="151.54" r="1.5" fill="#0072b2"/>
<circle cx="653.07" cy="137.04" r="1.5" fill="#0072b2"/>
<circle cx="655.08" cy="135.59" r="1.5" fill="#0072b2"/>
<circle cx="657.09" cy="106.58" r="1.5" fill="#0072b2"/>
<circle cx="659.11" cy="151.54" r="1.5" fill="#0072b2"/>
<circle cx="661.12" cy="161.69" r="1.5" fill="#0072b2"/>
<circle cx="663.14" cy="238.55" r="1.5" fill="#0072b2"/>
<circle cx="665.15" cy="161.69" r="1.5" fill="#0072b2"/>
<circle cx="667.16" cy="161.69" r="1.5" fill="#0072b2"/>
<circle cx="669.18" cy="161.69" r="1.5" fill="#0072b2"/>
<circle cx="671.19" cy="148.64" r="1.5" fill="#0072b2"/>
<circle cx="673.21" cy="152.99" r="1.5" fill="#0072b2"/>
<circle cx="675.22" cy="155.89" r="1.5" fill="#0072b2"/>
<circle cx="677.23" cy="154.44" r="1.5" fill="#0072b2"/>
<circle cx="679.25" cy="152.99" r="1.5" fill="#0072b2"/>
<circle cx="681.26" cy="161.69" r="1.5" fill="#0072b2"/>
<circle cx="683.27" cy="150.09" r="1.5" fill="#0072b2"/>
<circle cx="685.29" cy="238.55" r="1.5" fill="#0072b2"/>
<circle cx="687.30" cy="173.29" r="1.5" fill="#0072b2"/>
<circle cx="689.32" cy="151.54" r="1.5" fill="#0072b2"/>
<circle cx="691.33" cy="144.29" r="1.5" fill="#0072b2"/>
<circle cx="693.34" cy="141.39" r="1.5" fill="#0072b2"/>
<circle cx="695.36" cy="148.64" r="1.5" fill="#0072b2"/>
<circle cx="697.37" cy="238.55" r="1.5" fill="#0072b2"/>
<circle cx="699.39" cy="147.19" r="1.5" fill="#0072b2"/>
<circle cx="701.40" cy="115.28" r="1.5" fill="#0072b2"/>
<circle cx="703.41" cy="83.38" r="1.5" fill="#0072b2"/>
<circle cx="705.43" cy="121.08" r="1.5" fill="#0072b2"/>
<circle cx="707.44" cy="160.24" r="1.5" fill="#0072b2"/>
<circle cx="709.46" cy="238.55" r="1.5" fill="#0072b2"/>
<circle cx="711.47" cy="157.34" r="1.5" fill="#0072b2"/>
<circle cx="713.48" cy="150.09" r="1.5" fill="#0072b2"/>
<circle cx="715.50" cy="131.24" r="1.5" fill="#0072b2"/>
<circle cx="717.51" cy="157.34" r="1.5" fill="#0072b2"/>
<circle cx="719.53" cy="129.79" r="1.5" fill="#0072b2"/>
<circle cx="721.54" cy="158.79" r="1.5" fill="#0072b2"/>
<circle cx="723.55" cy="171.84" r="1.5" fill="#0072b2"/>
<circle cx="725.57" cy="145.74" r="1.5" fill="#0072b2"/>
<circle cx="727.58" cy="92.08" r="1.5" fill="#0072b2"/>
<circle cx="729.60" cy="123.98" r="1.5" fill="#0072b2"/>
<circle cx="731.61" cy="160.24" r="1.5" fill="#0072b2"/>
<circle cx="733.62" cy="137.04" r="1.5" fill="#0072b2"/>
<circle cx="735.64" cy="116.73" r="1.5" fill="#0072b2"/>
<circle cx="737.65" cy="93.53" r="1.5" fill="#0072b2"/>
<circle cx="739.66" cy="142.84" r="1.5" fill="#0072b2"/>
<circle cx="741.68" cy="116.73" r="1.5" fill="#0072b2"/>
<circle cx="743.69" cy="150.09" r="1.5" fill="#0072b2"/>
<circle cx="745.71" cy="157.34" r="1.5" fill="#0072b2"/>
<circle cx="747.72" cy="161.69" r="1.5" fill="#0072b2"/>
<circle cx="749.73" cy="148.64" r="1.5" fill="#0072b2"/>
<circle cx="751.75" cy="150.09" r="1.5" fill="#0072b2"/>
<circle cx="753.76" cy="195.04" r="1.5" fill="#0072b2"/>
<circle cx="755.78" cy="151.54" r="1.5" fill="#0072b2"/>
<circle cx="757.79" cy="161.69" r="1.5" fill="#0072b2"/>
<circle cx="759.80" cy="145.74" r="1.5" fill="#0072b2"/>
<circle cx="761.82" cy="154.44" r="1.5" fill="#0072b2"/>
<circle cx="763.83" cy="161.69" r="1.5" fill="#0072b2"/>
<circle cx="765.85" cy="151.54" r="1.5" fill="#0072b2"/>
<circle cx="767.86" cy="155.89" r="1.5" fill="#0072b2"/>
<circle cx="769.87" cy="116.73" r="1.5" fill="#0072b2"/>
<circle cx="771.89" cy="150.09" r="1.5" fill="#0072b2"/>
<circle cx="773.90" cy="119.63" r="1.5" fill="#0072b2"/>
<circle cx="775.92" cy="148.64" r="1.5" fill="#0072b2"/>
<circle cx="777.93" cy="151.54" r="1.5" fill="#0072b2"/>
<circle cx="779.94" cy="122.53" r="1.5" fill="#0072b2"/>
<circle cx="781.96" cy="92.08" r="1.5" fill="#0072b2"/>
<circle cx="783.97" cy="158.79" r="1.5" fill="#0072b2"/>
<circle cx="785.99" cy="99.33" r="1.5" fill="#0072b2"/>
<circle cx="788.00" cy="123.98" r="1.5" fill="#0072b2"/>
<circle cx="790.01" cy="148.64" r="1.5" fill="#0072b2"/>
<circle cx="792.03" cy="168.94" r="1.5" fill="#0072b2"/>
<circle cx="794.04" cy="170.39" r="1.5" fill="#0072b2"/>
<circle cx="796.05" cy="89.18" r="1.5" fill="#0072b2"/>
<circle cx="798.07" cy="155.89" r="1.5" fill="#0072b2"/>
<circle cx="800.08" cy="93.53" r="1.5" fill="#0072b2"/>
<circle cx="802.10" cy="137.04" r="1.5" fill="#0072b2"/>
<circle cx="804.11" cy="151.54" r="1.5" fill="#0072b2"/>
<circle cx="806.12" cy="131.24" r="1.5" fill="#0072b2"/>
<circle cx="808.14" cy="171.84" r="1.5" fill="#0072b2"/>
<circle cx="810.15" cy="125.43" r="1.5" fill="#0072b2"/>
<circle cx="812.17" cy="147.19" r="1.5" fill="#0072b2"/>
<circle cx="814.18" cy="132.69" r="1.5" fill="#0072b2"/>
<circle cx="816.19" cy="116.73" r="1.5" fill="#0072b2"/>
<circle cx="818.21" cy="238.55" r="1.5" fill="#0072b2"/>
<circle cx="820.22" cy="131.24" r="1.5" fill="#0072b2"/>
<circle cx="822.24" cy="142.84" r="1.5" fill="#0072b2"/>
<circle cx="824.25" cy="144.29" r="1.5" fill="#0072b2"/>
<circle cx="826.26" cy="163.14" r="1.5" fill="#0072b2"/>
<circle cx="828.28" cy="158.79" r="1.5" fill="#0072b2"/>
<circle cx="830.29" cy="134.14" r="1.5" fill="#0072b2"/>
<circle cx="832.31" cy="83.38" r="1.5" fill="#0072b2"/>
<circle cx="834.32" cy="155.89" r="1.5" fill="#0072b2"/>
<circle cx="836.33" cy="109.48" r="1.5" fill="#0072b2"/>
<circle cx="838.35" cy="97.88" r="1.5" fill="#0072b2"/>
<circle cx="840.36" cy="161.69" r="1.5" fill="#0072b2"/>
<circle cx="842.38" cy="173.29" r="1.5" fill="#0072b2"/>
<circle cx="844.39" cy="238.55" r="1.5" fill="#0072b2"/>
<circle cx="846.40" cy="150.09" r="1.5" fill="#0072b2"/>
<circle cx="848.42" cy="144.29" r="1.5" fill="#0072b2"/>
<circle cx="850.43" cy="150.09" r="1.5" fill="#0072b2"/>
<circle cx="852.44" cy="148.64" r="1.5" fill="#0072b2"/>
<circle cx="854.46" cy="83.38" r="1.5" fill="#0072b2"/>
<circle cx="856.47" cy="161.69" r="1.5" fill="#0072b2"/>
<circle cx="858.49" cy="154.44" r="1.5" fill="#0072b2"/>
<circle cx="860.50" cy="151.54" r="1.5" fill="#0072b2"/>
<circle cx="862.51" cy="150.09" r="1.5" fill="#0072b2"/>
<circle cx="864.53" cy="145.74" r="1.5" fill="#0072b2"/>
<circle cx="866.54" cy="183.44" r="1.5" fill="#0072b2"/>
<circle cx="868.56" cy="161.69" r="1.5" fill="#0072b2"/>
<circle cx="870.57" cy="142.84" r="1.5" fill="#0072b2"/>
<circle cx="872.58" cy="161.69" r="1.5" fill="#0072b2"/>
<circle cx="874.60" cy="147.19" r="1.5" fill="#0072b2"/>
<circle cx="876.61" cy="151.54" r="1.5" fill="#0072b2"/>
<circle cx="878.63" cy="144.29" r="1.5" fill="#0072b2"/>
<circle cx="880.64" cy="168.94" r="1.5" fill="#0072b2"/>
<circle cx="882.65" cy="155.89" r="1.5" fill="#0072b2"/>
<circle cx="884.67" cy="238.55" r="1.5" fill="#0072b2"/>
<circle cx="886.68" cy="121.08" r="1.5" fill="#0072b2"/>
<circle cx="888.70" cy="147.19" r="1.5" fill="#0072b2"/>
<circle cx="890.71" cy="122.53" r="1.5" fill="#0072b2"/>
<circle cx="892.72" cy="139.94" r="1.5" fill="#0072b2"/>
<circle cx="894.74" cy="144.29" r="1.5" fill="#0072b2"/>
<circle cx="896.75" cy="163.14" r="1.5" fill="#0072b2"/>
<circle cx="898.76" cy="145.74" r="1.5" fill="#0072b2"/>
<circle cx="900.78" cy="238.55" r="1.5" fill="#0072b2"/>
<circle cx="902.79" cy="105.13" r="1.5" fill="#0072b2"/>
<circle cx="904.81" cy="125.43" r="1.5" fill="#0072b2"/>
<circle cx="906.82" cy="108.03" r="1.5" fill="#0072b2"/>
<circle cx="908.83" cy="157.34" r="1.5" fill="#0072b2"/>
<circle cx="910.85" cy="144.29" r="1.5" fill="#0072b2"/>
<circle cx="912.86" cy="131.24" r="1.5" fill="#0072b2"/>
<circle cx="914.88" cy="158.79" r="1.5" fill="#0072b2"/>
<circle cx="916.89" cy="103.68" r="1.5" fill="#0072b2"/>
<circle cx="918.90" cy="179.09" r="1.5" fill="#0072b2"/>
<circle cx="920.92" cy="145.74" r="1.5" fill="#0072b2"/>
<circle cx="922.93" cy="166.04" r="1.5" fill="#0072b2"/>
<circle cx="924.95" cy="128.33" r="1.5" fill="#0072b2"/>
<circle cx="926.96" cy="238.55" r="1.5" fill="#0072b2"/>
<circle cx="928.97" cy="148.64" r="1.5" fill="#0072b2"/>
<circle cx="930.99" cy="99.33" r="1.5" fill="#0072b2"/>
<circle cx="933.00" cy="105.13" r="1.5" fill="#0072b2"/>
<circle cx="935.02" cy="163.14" r="1.5" fill="#0072b2"/>
<circle cx="937.03" cy="148.64" r="1.5" fill="#0072b2"/>
<circle cx="939.04" cy="142.84" r="1.5" fill="#0072b2"/>
<circle cx="941.06" cy="160.24" r="1.5" fill="#0072b2"/>
<circle cx="943.07" cy="83.38" r="1.5" fill="#0072b2"/>
<circle cx="945.09" cy="125.43" r="1.5" fill="#0072b2"/>
<circle cx="947.10" cy="108.03" r="1.5" fill="#0072b2"/>
<circle cx="949.11" cy="132.69" r="1.5" fill="#0072b2"/>
<circle cx="951.13" cy="158.79" r="1.5" fill="#0072b2"/>
<circle cx="953.14" cy="119.63" r="1.5" fill="#0072b2"/>
<circle cx="955.15" cy="139.94" r="1.5" fill="#0072b2"/>
<circle cx="957.17" cy="110.93" r="1.5" fill="#0072b2"/>
<circle cx="959.18" cy="132.69" r="1.5" fill="#0072b2"/>
<circle cx="961.20" cy="238.55" r="1.5" fill="#0072b2"/>
<circle cx="963.21" cy="237.10" r="1.5" fill="#0072b2"/>
<circle cx="965.22" cy="113.83" r="1.5" fill="#0072b2"/>
<circle cx="967.24" cy="238.55" r="1.5" fill="#0072b2"/>
<circle cx="969.25" cy="240.00" r="1.5" fill="#0072b2"/>
<polyline points="65.00,240.00 67.01,233.75 69.03,236.08 71.04,235.15 73.06,233.68 75.07,234.30 77.08,234.60 79.10,234.17 81.11,236.13 83.13,234.95 85.14,234.44 87.15,234.32 89.17,235.72 91.18,234.62 93.19,234.50 95.21,234.80 97.22,237.26 99.24,239.97 101.25,239.93 103.26,239.99 105.28,234.43 107.29,236.00 109.31,234.35 111.32,235.93 113.33,234.21 115.35,235.68 117.36,233.36 119.38,236.32 121.39,234.32 123.40,235.78 125.42,234.72 127.43,234.95 129.45,233.49 131.46,236.04 133.47,230.36 135.49,239.97 137.50,239.99 139.52,239.99 141.53,235.25 143.54,236.43 145.56,233.52 147.57,235.98 149.58,233.64 151.60,235.55 153.61,234.54 155.63,236.35 157.64,234.20 159.65,234.21 161.67,233.92 163.68,235.87 165.70,233.71 167.71,235.68 169.72,234.64 171.74,234.45 173.75,237.44 175.77,239.99 177.78,239.97 179.79,240.00 181.81,214.69 183.82,212.04 185.84,229.15 187.85,239.97 189.86,240.00 191.88,236.29 193.89,202.21 195.91,214.30 197.92,239.97 199.93,239.97 201.95,231.46 203.96,222.42 205.97,212.61 207.99,223.49 210.00,239.97 212.02,239.53 214.03,224.82 216.04,213.79 218.06,220.25 220.07,235.83 222.09,231.97 224.10,239.99 226.11,222.73 228.13,215.99 230.14,223.24 232.16,239.99 234.17,231.28 236.18,231.14 238.20,215.82 240.21,223.09 242.23,231.97 244.24,237.63 246.25,236.22 248.27,234.89 250.28,236.34 252.30,236.16 254.31,240.00 256.32,234.33 258.34,235.65 260.35,230.07 262.36,234.89 264.38,235.49 266.39,234.14 268.41,235.75 270.42,234.96 272.43,236.01 274.45,230.72 276.46,239.96 278.48,223.29 280.49,239.99 282.50,220.61 284.52,218.41 286.53,231.05 288.55,232.00 290.56,231.55 292.57,231.68 294.59,213.48 296.60,223.20 298.62,239.97 300.63,224.52 302.64,239.99 304.66,217.17 306.67,213.73 308.68,231.11 310.70,240.00 312.71,231.80 314.73,232.60 316.74,213.82 318.75,217.49 320.77,236.44 322.78,231.62 324.80,239.99 326.81,221.84 328.82,205.54 330.84,232.35 332.85,239.96 334.87,224.50 336.88,239.97 338.89,234.68 340.91,236.37 342.92,228.27 344.94,211.03 346.95,234.43 348.96,237.26 350.98,235.87 352.99,234.60 355.01,235.99 357.02,235.94 359.03,240.00 361.05,231.21 363.06,234.48 365.07,237.11 367.09,225.81 369.10,237.22 371.12,233.40 373.13,235.65 375.14,235.88 377.16,236.19 379.17,237.23 381.19,239.99 383.20,222.25 385.21,234.51 387.23,228.28 389.24,213.60 391.26,225.42 393.27,239.58 395.28,232.46 397.30,232.44 399.31,215.35 401.33,223.77 403.34,232.42 405.35,231.58 407.37,239.97 409.38,218.97 411.40,219.42 413.41,224.98 415.42,239.96 417.44,230.96 419.45,223.17 421.46,228.24 423.48,217.57 425.49,232.84 427.51,232.71 429.52,239.99 431.53,222.94 433.55,213.20 435.56,223.81 437.58,232.84 439.59,239.99 441.60,238.65 443.62,235.06 445.63,229.79 447.65,229.48 449.66,216.18 451.67,233.82 453.69,236.78 455.70,230.13 457.72,239.99 459.73,239.99 461.74,233.95 463.76,236.07 465.77,229.03 467.79,235.12 469.80,237.04 471.81,234.58 473.83,235.89 475.84,233.38 477.85,236.92 479.87,235.71 481.88,234.27 483.90,229.73 485.91,232.47 487.92,239.99 489.94,234.61 491.95,212.65 493.97,223.86 495.98,223.96 497.99,239.96 500.01,239.97 502.02,214.85 504.04,224.48 506.05,223.50 508.06,232.66 510.08,239.99 512.09,239.99 514.11,211.69 516.12,213.63 518.13,222.92 520.15,239.97 522.16,239.99 524.17,228.74 526.19,220.02 528.20,220.26 530.22,225.56 532.23,239.99 534.24,239.97 536.26,215.20 538.27,223.49 540.29,222.33 542.30,231.03 544.31,240.00 546.33,231.20 548.34,227.55 550.36,236.50 552.37,221.89 554.38,229.55 556.40,226.03 558.41,239.97 560.43,239.99 562.44,221.03 564.45,234.81 566.47,229.03 568.48,234.90 570.50,235.44 572.51,235.88 574.52,235.50 576.54,236.40 578.55,234.90 580.56,236.00 582.58,231.84 584.59,239.99 586.61,239.99 588.62,213.54 590.63,217.25 592.65,222.18 594.66,238.45 596.68,239.99 598.69,229.73 600.70,213.39 602.72,225.32 604.73,222.73 606.75,239.99 608.76,239.97 610.77,222.52 612.79,215.23 614.80,221.67 616.82,231.80 618.83,239.94 620.84,230.22 622.86,212.73 624.87,223.20 626.89,225.48 628.90,239.96 630.91,239.99 632.93,222.20 634.94,215.86 636.95,230.27 638.97,224.74 640.98,239.97 643.00,239.99 645.01,226.93 647.02,235.91 649.04,235.30 651.05,236.38 653.07,225.16 655.08,226.18 657.09,226.11 659.11,236.07 661.12,237.96 663.14,239.97 665.15,237.07 667.16,235.97 669.18,236.72 671.19,235.15 673.21,236.40 675.22,219.05 677.23,232.81 679.25,236.63 681.26,237.20 683.27,223.91 685.29,239.99 687.30,232.40 689.32,223.57 691.33,223.56 693.34,222.34 695.36,223.30 697.37,239.99 699.39,236.35 701.40,214.67 703.41,221.21 705.43,219.92 707.44,232.08 709.46,239.99 711.47,231.74 713.48,215.54 715.50,227.80 717.51,226.60 719.53,231.52 721.54,232.18 723.55,232.78 725.57,223.50 727.58,222.27 729.60,225.10 731.61,232.49 733.62,231.18 735.64,224.74 737.65,226.74 739.66,223.77 741.68,232.18 743.69,235.24 745.71,237.82 747.72,237.92 749.73,234.49 751.75,236.00 753.76,239.53 755.78,234.62 757.79,227.58 759.80,230.75 761.82,229.82 763.83,236.10 765.85,236.65 767.86,231.80 769.87,230.72 771.89,232.21 773.90,222.32 775.92,234.68 777.93,236.03 779.94,223.15 781.96,229.79 783.97,231.82 785.99,231.09 788.00,223.44 790.01,223.83 792.03,232.59 794.04,232.69 796.05,229.58 798.07,231.94 800.08,222.08 802.10,215.51 804.11,231.43 806.12,232.08 808.14,232.37 810.15,228.58 812.17,219.19 814.18,227.88 816.19,223.32 818.21,239.99 820.22,231.71 822.24,222.86 824.25,213.94 826.26,232.72 828.28,230.74 830.29,238.30 832.31,231.82 834.32,224.09 836.33,214.77 838.35,228.81 840.36,234.62 842.38,237.16 844.39,239.99 846.40,232.24 848.42,229.60 850.43,235.88 852.44,236.87 854.46,213.07 856.47,238.61 858.49,234.99 860.50,236.50 862.51,232.03 864.53,232.09 866.54,238.73 868.56,234.55 870.57,229.39 872.58,222.70 874.60,234.38 876.61,236.81 878.63,232.03 880.64,232.45 882.65,232.34 884.67,239.96 886.68,216.01 888.70,220.86 890.71,222.82 892.72,231.47 894.74,230.73 896.75,232.47 898.76,215.06 900.78,239.96 902.79,221.86 904.81,231.11 906.82,229.31 908.83,232.68 910.85,215.48 912.86,223.87 914.88,232.38 916.89,229.73 918.90,239.25 920.92,218.72 922.93,230.57 924.95,214.10 926.96,239.97 928.97,231.67 930.99,229.67 933.00,213.94 935.02,232.36 937.03,224.47 939.04,237.54 941.06,234.05 943.07,228.71 945.09,206.08 947.10,228.02 949.11,233.75 951.13,232.37 953.14,230.99 955.15,222.20 957.17,221.53 959.18,231.79 961.20,239.99 963.21,239.96 965.22,222.75 967.24,239.96 969.25,240.00" stroke="#009e73" fill="none" stroke-width="1.6"/>
<circle cx="65.00" cy="240.00" r="1.5" fill="#009e73"/>
<circle cx="67.01" cy="233.75" r="1.5" fill="#009e73"/>
<circle cx="69.03" cy="236.08" r="1.5" fill="#009e73"/>
<circle cx="71.04" cy="235.15" r="1.5" fill="#009e73"/>
<circle cx="73.06" cy="233.68" r="1.5" fill="#009e73"/>
<circle cx="75.07" cy="234.30" r="1.5" fill="#009e73"/>
<circle cx="77.08" cy="234.60" r="1.5" fill="#009e73"/>
<circle cx="79.10" cy="234.17" r="1.5" fill="#009e73"/>
<circle cx="81.11" cy="236.13" r="1.5" fill="#009e73"/>
<circle cx="83.13" cy="234.95" r="1.5" fill="#009e73"/>
<circle cx="85.14" cy="234.44" r="1.5" fill="#009e73"/>
<circle cx="87.15" cy="234.32" r="1.5" fill="#009e73"/>
<circle cx="89.17" cy="235.72" r="1.5" fill="#009e73"/>
<circle cx="91.18" cy="234.62" r="1.5" fill="#009e73"/>
<circle cx="93.19" cy="234.50" r="1.5" fill="#009e73"/>
<circle cx="95.21" cy="234.80" r="1.5" fill="#009e73"/>
<circle cx="97.22" cy="237.26" r="1.5" fill="#009e73"/>
<circle cx="99.24" cy="239.97" r="1.5" fill="#009e73"/>
<circle cx="101.25" cy="239.93" r="1.5" fill="#009e73"/>
<circle cx="103.26" cy="239.99" r="1.5" fill="#009e73"/>
<circle cx="105.28" cy="234.43" r="1.5" fill="#009e73"/>
<circle cx="107.29" cy="236.00" r="1.5" fill="#009e73"/>
<circle cx="109.31" cy="234.35" r="1.5" fill="#009e73"/>
<circle cx="111.32" cy="235.93" r="1.5" fill="#009e73"/>
<circle cx="113.33" cy="234.21" r="1.5" fill="#009e73"/>
<circle cx="115.35" cy="235.68" r="1.5" fill="#009e73"/>
<circle cx="117.36" cy="233.36" r="1.5" fill="#009e73"/>
<circle cx="119.38" cy="236.32" r="1.5" fill="#009e73"/>
<circle cx="121.39" cy="234.32" r="1.5" fill="#009e73"/>
<circle cx="123.40" cy="235.78" r="1.5" fill="#009e73"/>
<circle cx="125.42" cy="234.72" r="1.5" fill="#009e73"/>
<circle cx="127.43" cy="234.95" r="1.5" fill="#009e73"/>
<circle cx="129.45" cy="233.49" r="1.5" fill="#009e73"/>
<circle cx="131.46" cy="236.04" r="1.5" fill="#009e73"/>
<circle cx="133.47" cy="230.36" r="1.5" fill="#009e73"/>
<circle cx="135.49" cy="239.97" r="1.5" fill="#009e73"/>
<circle cx="137.50" cy="239.99" r="1.5" fill="#009e73"/>
<circle cx="139.52" cy="239.99" r="1.5" fill="#009e73"/>
<circle cx="141.53" cy="235.25" r="1.5" fill="#009e73"/>
<circle cx="143.54" cy="236.43" r="1.5" fill="#009e73"/>
<circle cx="145.56" cy="233.52" r="1.5" fill="#009e73"/>
<circle cx="147.57" cy="235.98" r="1.5" fill="#009e73"/>
<circle cx="149.58" cy="233.64" r="1.5" fill="#009e73"/>
<circle cx="151.60" cy="235.55" r="1.5" fill="#009e73"/>
<circle cx="153.61" cy="234.54" r="1.5" fill="#009e73"/>
<circle cx="155.63" cy="236.35" r="1.5" fill="#009e73"/>
<circle cx="157.64" cy="234.20" r="1.5" fill="#009e73"/>
<circle cx="159.65" cy="234.21" r="1.5" fill="#009e73"/>
<circle cx="161.67" cy="233.92" r="1.5" fill="#009e73"/>
<circle cx="163.68" cy="235.87" r="1.5" fill="#009e73"/>
<circle cx="165.70" cy="233.71" r="1.5" fill="#009e73"/>
<circle cx="167.71" cy="235.68" r="1.5" fill="#009e73"/>
<circle cx="169.72" cy="234.64" r="1.5" fill="#009e73"/>
<circle cx="171.74" cy="234.45" r="1.5" fill="#009e73"/>
<circle cx="173.75" cy="237.44" r="1.5" fill="#009e73"/>
<circle cx="175.77" cy="239.99" r="1.5" fill="#009e73"/>
<circle cx="177.78" cy="239.97" r="1.5" fill="#009e73"/>
<circle cx="179.79" cy="240.00" r="1.5" fill="#009e73"/>
<circle cx="181.81" cy="214.69" r="1.5" fill="#009e73"/>
<circle cx="183.82" cy="212.04" r="1.5" fill="#009e73"/>
<circle cx="185.84" cy="229.15" r="1.5" fill="#009e73"/>
<circle cx="187.85" cy="239.97" r="1.5" fill="#009e73"/>
<circle cx="189.86" cy="240.00" r="1.5" fill="#009e73"/>
<circle cx="191.88" cy="236.29" r="1.5" fill="#009e73"/>
<circle cx="193.89" cy="202.21" r="1.5" fill="#009e73"/>
<circle cx="195.91" cy="214.30" r="1.5" fill="#009e73"/>
<circle cx="197.92" cy="239.97" r="1.5" fill="#009e73"/>
<circle cx="199.93" cy="239.97" r="1.5" fill="#009e73"/>
<circle cx="201.95" cy="231.46" r="1.5" fill="#009e73"/>
<circle cx="203.96" cy="222.42" r="1.5" fill="#009e73"/>
<circle cx="205.97" cy="212.61" r="1.5" fill="#009e73"/>
<circle cx="207.99" cy="223.49" r="1.5" fill="#009e73"/>
<circle cx="210.00" cy="239.97" r="1.5" fill="#009e73"/>
<circle cx="212.02" cy="239.53" r="1.5" fill="#009e73"/>
<circle cx="214.03" cy="224.82" r="1.5" fill="#009e73"/>
<circle cx="216.04" cy="213.79" r="1.5" fill="#009e73"/>
<circle cx="218.06" cy="220.25" r="1.5" fill="#009e73"/>
<circle cx="220.07" cy="235.83" r="1.5" fill="#009e73"/>
<circle cx="222.09" cy="231.97" r="1.5" fill="#009e73"/>
<circle cx="224.10" cy="239.99" r="1.5" fill="#009e73"/>
<circle cx="226.11" cy="222.73" r="1.5" fill="#009e73"/>
<circle cx="228.13" cy="215.99" r="1.5" fill="#009e73"/>
<circle cx="230.14" cy="223.24" r="1.5" fill="#009e73"/>
<circle cx="232.16" cy="239.99" r="1.5" fill="#009e73"/>
<circle cx="234.17" cy="231.28" r="1.5" fill="#009e73"/>
<circle cx="236.18" cy="231.14" r="1.5" fill="#009e73"/>
<circle cx="238.20" cy="215.82" r="1.5" fill="#009e73"/>
<circle cx="240.21" cy="223.09" r="1.5" fill="#009e73"/>
<circle cx="242.23" cy="231.97" r="1.5" fill="#009e73"/>
<circle cx="244.24" cy="237.63" r="1.5" fill="#009e73"/>
<circle cx="246.25" cy="236.22" r="1.5" fill="#009e73"/>
<circle cx="248.27" cy="234.89" r="1.5" fill="#009e73"/>
<circle cx="250.28" cy="236.34" r="1.5" fill="#009e73"/>
<circle cx="252.30" cy="236.16" r="1.5" fill="#009e73"/>
<circle cx="254.31" cy="240.00" r="1.5" fill="#009e73"/>
<circle cx="256.32" cy="234.33" r="1.5" fill="#009e73"/>
<circle cx="258.34" cy="235.65" r="1.5" fill="#009e73"/>
<circle cx="260.35" cy="230.07" r="1.5" fill="#009e73"/>
<circle cx="262.36" cy="234.89" r="1.5" fill="#009e73"/>
<circle cx="264.38" cy="235.49" r="1.5" fill="#009e73"/>
<circle cx="266.39" cy="234.14" r="1.5" fill="#009e73"/>
<circle cx="268.41" cy="235.75" r="1.5" fill="#009e73"/>
<circle cx="270.42" cy="234.96" r="1.5" fill="#009e73"/>
<circle cx="272.43" cy="236.01" r="1.5" fill="#009e73"/>
<circle cx="274.45" cy="230.72" r="1.5" fill="#009e73"/>
<circle cx="276.46" cy="239.96" r="1.5" fill="#009e73"/>
<circle cx="278.48" cy="223.29" r="1.5" fill="#009e73"/>
<circle cx="280.49" cy="239.99" r="1.5" fill="#009e73"/>
<circle cx="282.50" cy="220.61" r="1.5" fill="#009e73"/>
<circle cx="284.52" cy="218.41" r="1.5" fill="#009e73"/>
<circle cx="286.53" cy="231.05" r="1.5" fill="#009e73"/>
<circle cx="288.55" cy="232.00" r="1.5" fill="#009e73"/>
<circle cx="290.56" cy="231.55" r="1.5" fill="#009e73"/>
<circle cx="292.57" cy="231.68" r="1.5" fill="#009e73"/>
<circle cx="294.59" cy="213.48" r="1.5" fill="#009e73"/>
<circle cx="296.60" cy="223.20" r="1.5" fill="#009e73"/>
<circle cx="298.62" cy="239.97" r="1.5" fill="#009e73"/>
<circle cx="300.63" cy="224.52" r="1.5" fill="#009e73"/>
<circle cx="302.64" cy="239.99" r="1.5" fill="#009e73"/>
<circle cx="304.66" cy="217.17" r="1.5" fill="#009e73"/>
<circle cx="306.67" cy="213.73" r="1.5" fill="#009e73"/>
<circle cx="308.68" cy="231.11" r="1.5" fill="#009e73"/>
<circle cx="310.70" cy="240.00" r="1.5" fill="#009e73"/>
<circle cx="312.71" cy="231.80" r="1.5" fill="#009e73"/>
<circle cx="314.73" cy="232.60" r="1.5" fill="#009e73"/>
<circle cx="316.74" cy="213.82" r="1.5" fill="#009e73"/>
<circle cx="318.75" cy="217.49" r="1.5" fill="#009e73"/>
<circle cx="320.77" cy="236.44" r="1.5" fill="#009e73"/>
<circle cx="322.78" cy="231.62" r="1.5" fill="#009e73"/>
<circle cx="324.80" cy="239.99" r="1.5" fill="#009e73"/>
<circle cx="326.81" cy="221.84" r="1.5" fill="#009e73"/>
<circle cx="328.82" cy="205.54" r="1.5" fill="#009e73"/>
<circle cx="330.84" cy="232.35" r="1.5" fill="#009e73"/>
<circle cx="332.85" cy="239.96" r="1.5" fill="#009e73"/>
<circle cx="334.87" cy="224.50" r="1.5" fill="#009e73"/>
<circle cx="336.88" cy="239.97" r="1.5" fill="#009e73"/>
<circle cx="338.89" cy="234.68" r="1.5" fill="#009e73"/>
<circle cx="340.91" cy="236.37" r="1.5" fill="#009e73"/>
<circle cx="342.92" cy="228.27" r="1.5" fill="#009e73"/>
<circle cx="344.94" cy="211.03" r="1.5" fill="#009e73"/>
<circle cx="346.95" cy="234.43" r="1.5" fill="#009e73"/>
<circle cx="348.96" cy="237.26" r="1.5" fill="#009e73"/>
<circle cx="350.98" cy="235.87" r="1.5" fill="#009e73"/>
<circle cx="352.99" cy="234.60" r="1.5" fill="#009e73"/>
<circle cx="355.01" cy="235.99" r="1.5" fill="#009e73"/>
<circle cx="357.02" cy="235.94" r="1.5" fill="#009e73"/>
<circle cx="359.03" cy="240.00" r="1.5" fill="#009e73"/>
<circle cx="361.05" cy="231.21" r="1.5" fill="#009e73"/>
<circle cx="363.06" cy="234.48" r="1.5" fill="#009e73"/>
<circle cx="365.07" cy="237.11" r="1.5" fill="#009e73"/>
<circle cx="367.09" cy="225.81" r="1.5" fill="#009e73"/>
<circle cx="369.10" cy="237.22" r="1.5" fill="#009e73"/>
<circle cx="371.12" cy="233.40" r="1.5" fill="#009e73"/>
<circle cx="373.13" cy="235.65" r="1.5" fill="#009e73"/>
<circle cx="375.14" cy="235.88" r="1.5" fill="#009e73"/>
<circle cx="377.16" cy="236.19" r="1.5" fill="#009e73"/>
<circle cx="379.17" cy="237.23" r="1.5" fill="#009e73"/>
<circle cx="381.19" cy="239.99" r="1.5" fill="#009e73"/>
<circle cx="383.20" cy="222.25" r="1.5" fill="#009e73"/>
<circle cx="385.21" cy="234.51" r="1.5" fill="#009e73"/>
<circle cx="387.23" cy="228.28" r="1.5" fill="#009e73"/>
<circle cx="389.24" cy="213.60" r="1.5" fill="#009e73"/>
<circle cx="391.26" cy="225.42" r="1.5" fill="#009e73"/>
<circle cx="393.27" cy="239.58" r="1.5" fill="#009e73"/>
<circle cx="395.28" cy="232.46" r="1.5" fill="#009e73"/>
<circle cx="397.30" cy="232.44" r="1.5" fill="#009e73"/>
<circle cx="399.31" cy="215.35" r="1.5" fill="#009e73"/>
<circle cx="401.33" cy="223.77" r="1.5" fill="#009e73"/>
<circle cx="403.34" cy="232.42" r="1.5" fill="#009e73"/>
<circle cx="405.35" cy="231.58" r="1.5" fill="#009e73"/>
<circle cx="407.37" cy="239.97" r="1.5" fill="#009e73"/>
<circle cx="409.38" cy="218.97" r="1.5" fill="#009e73"/>
<circle cx="411.40" cy="219.42" r="1.5" fill="#009e73"/>
<circle cx="413.41" cy="224.98" r="1.5" fill="#009e73"/>
<circle cx="415.42" cy="239.96" r="1.5" fill="#009e73"/>
<circle cx="417.44" cy="230.96" r="1.5" fill="#009e73"/>
<circle cx="419.45" cy="223.17" r="1.5" fill="#009e73"/>
<circle cx="421.46" cy="228.24" r="1.5" fill="#009e73"/>
<circle cx="423.48" cy="217.57" r="1.5" fill="#009e73"/>
<circle cx="425.49" cy="232.84" r="1.5" fill="#009e73"/>
<circle cx="427.51" cy="232.71" r="1.5" fill="#009e73"/>
<circle cx="429.52" cy="239.99" r="1.5" fill="#009e73"/>
<circle cx="431.53" cy="222.94" r="1.5" fill="#009e73"/>
<circle cx="433.55" cy="213.20" r="1.5" fill="#009e73"/>
<circle cx="435.56" cy="223.81" r="1.5" fill="#009e73"/>
<circle cx="437.58" cy="232.84" r="1.5" fill="#009e73"/>
<circle cx="439.59" cy="239.99" r="1.5" fill="#009e73"/>
<circle cx="441.60" cy="238.65" r="1.5" fill="#009e73"/>
<circle cx="443.62" cy="235.06" r="1.5" fill="#009e73"/>
<circle cx="445.63" cy="229.79" r="1.5" fill="#009e73"/>
<circle cx="447.65" cy="229.48" r="1.5" fill="#009e73"/>
<circle cx="449.66" cy="216.18" r="1.5" fill="#009e73"/>
<circle cx="451.67" cy="233.82" r="1.5" fill="#009e73"/>
<circle cx="453.69" cy="236.78" r="1.5" fill="#009e73"/>
<circle cx="455.70" cy="230.13" r="1.5" fill="#009e73"/>
<circle cx="457.72" cy="239.99" r="1.5" fill="#009e73"/>
<circle cx="459.73" cy="239.99" r="1.5" fill="#009e73"/>
<circle cx="461.74" cy="233.95" r="1.5" fill="#009e73"/>
<circle cx="463.76" cy="236.07" r="1.5" fill="#009e73"/>
<circle cx="465.77" cy="229.03" r="1.5" fill="#009e73"/>
<circle cx="467.79" cy="235.12" r="1.5" fill="#009e73"/>
<circle cx="469.80" cy="237.04" r="1.5" fill="#009e73"/>
<circle cx="471.81" cy="234.58" r="1.5" fill="#009e73"/>
<circle cx="473.83" cy="235.89" r="1.5" fill="#009e73"/>
<circle cx="475.84" cy="233.38" r="1.5" fill="#009e73"/>
<circle cx="477.85" cy="236.92" r="1.5" fill="#009e73"/>
<circle cx="479.87" cy="235.71" r="1.5" fill="#009e73"/>
<circle cx="481.88" cy="234.27" r="1.5" fill="#009e73"/>
<circle cx="483.90" cy="229.73" r="1.5" fill="#009e73"/>
<circle cx="485.91" cy="232.47" r="1.5" fill="#009e73"/>
<circle cx="487.92" cy="239.99" r="1.5" fill="#009e73"/>
<circle cx="489.94" cy="234.61" r="1.5" fill="#009e73"/>
<circle cx="491.95" cy="212.65" r="1.5" fill="#009e73"/>
<circle cx="493.97" cy="223.86" r="1.5" fill="#009e73"/>
<circle cx="495.98" cy="223.96" r="1.5" fill="#009e73"/>
<circle cx="497.99" cy="239.96" r="1.5" fill="#009e73"/>
<circle cx="500.01" cy="239.97" r="1.5" fill="#009e73"/>
<circle cx="502.02" cy="214.85" r="1.5" fill="#009e73"/>
<circle cx="504.04" cy="224.48" r="1.5" fill="#009e73"/>
<circle cx="506.05" cy="223.50" r="1.5" fill="#009e73"/>
<circle cx="508.06" cy="232.66" r="1.5" fill="#009e73"/>
<circle cx="510.08" cy="239.99" r="1.5" fill="#009e73"/>
<circle cx="512.09" cy="239.99" r="1.5" fill="#009e73"/>
<circle cx="514.11" cy="211.69" r="1.5" fill="#009e73"/>
<circle cx="516.12" cy="213.63" r="1.5" fill="#009e73"/>
<circle cx="518.13" cy="222.92" r="1.5" fill="#009e73"/>
<circle cx="520.15" cy="239.97" r="1.5" fill="#009e73"/>
<circle cx="522.16" cy="239.99" r="1.5" fill="#009e73"/>
<circle cx="524.17" cy="228.74" r="1.5" fill="#009e73"/>
<circle cx="526.19" cy="220.02" r="1.5" fill="#009e73"/>
<circle cx="528.20" cy="220.26" r="1.5" fill="#009e73"/>
<circle cx="530.22" cy="225.56" r="1.5" fill="#009e73"/>
<circle cx="532.23" cy="239.99" r="1.5" fill="#009e73"/>
<circle cx="534.24" cy="239.97" r="1.5" fill="#009e73"/>
<circle cx="536.26" cy="215.20" r="1.5" fill="#009e73"/>
<circle cx="538.27" cy="223.49" r="1.5" fill="#009e73"/>
<circle cx="540.29" cy="222.33" r="1.5" fill="#009e73"/>
<circle cx="542.30" cy="231.03" r="1.5" fill="#009e73"/>
<circle cx="544.31" cy="240.00" r="1.5" fill="#009e73"/>
<circle cx="546.33" cy="231.20" r="1.5" fill="#009e73"/>
<circle cx="548.34" cy="227.55" r="1.5" fill="#009e73"/>
<circle cx="550.36" cy="236.50" r="1.5" fill="#009e73"/>
<circle cx="552.37" cy="221.89" r="1.5" fill="#009e73"/>
<circle cx="554.38" cy="229.55" r="1.5" fill="#009e73"/>
<circle cx="556.40" cy="226.03" r="1.5" fill="#009e73"/>
<circle cx="558.41" cy="239.97" r="1.5" fill="#009e73"/>
<circle cx="560.43" cy="239.99" r="1.5" fill="#009e73"/>
<circle cx="562.44" cy="221.03" r="1.5" fill="#009e73"/>
<circle cx="564.45" cy="234.81" r="1.5" fill="#009e73"/>
<circle cx="566.47" cy="229.03" r="1.5" fill="#009e73"/>
<circle cx="568.48" cy="234.90" r="1.5" fill="#009e73"/>
<circle cx="570.50" cy="235.44" r="1.5" fill="#009e73"/>
<circle cx="572.51" cy="235.88" r="1.5" fill="#009e73"/>
<circle cx="574.52" cy="235.50" r="1.5" fill="#009e73"/>
<circle cx="576.54" cy="236.40" r="1.5" fill="#009e73"/>
<circle cx="578.55" cy="234.90" r="1.5" fill="#009e73"/>
<circle cx="580.56" cy="236.00" r="1.5" fill="#009e73"/>
<circle cx="582.58" cy="231.84" r="1.5" fill="#009e73"/>
<circle cx="584.59" cy="239.99" r="1.5" fill="#009e73"/>
<circle cx="586.61" cy="239.99" r="1.5" fill="#009e73"/>
<circle cx="588.62" cy="213.54" r="1.5" fill="#009e73"/>
<circle cx="590.63" cy="217.25" r="1.5" fill="#009e73"/>
<circle cx="592.65" cy="222.18" r="1.5" fill="#009e73"/>
<circle cx="594.66" cy="238.45" r="1.5" fill="#009e73"/>
<circle cx="596.68" cy="239.99" r="1.5" fill="#009e73"/>
<circle cx="598.69" cy="229.73" r="1.5" fill="#009e73"/>
<circle cx="600.70" cy="213.39" r="1.5" fill="#009e73"/>
<circle cx="602.72" cy="225.32" r="1.5" fill="#009e73"/>
<circle cx="604.73" cy="222.73" r="1.5" fill="#009e73"/>
<circle cx="606.75" cy="239.99" r="1.5" fill="#009e73"/>
<circle cx="608.76" cy="239.97" r="1.5" fill="#009e73"/>
<circle cx="610.77" cy="222.52" r="1.5" fill="#009e73"/>
<circle cx="612.79" cy="215.23" r="1.5" fill="#009e73"/>
<circle cx="614.80" cy="221.67" r="1.5" fill="#009e73"/>
<circle cx="616.82" cy="231.80" r="1.5" fill="#009e73"/>
<circle cx="618.83" cy="239.94" r="1.5" fill="#009e73"/>
<circle cx="620.84" cy="230.22" r="1.5" fill="#009e73"/>
<circle cx="622.86" cy="212.73" r="1.5" fill="#009e73"/>
<circle cx="624.87" cy="223.20" r="1.5" fill="#009e73"/>
<circle cx="626.89" cy="225.48" r="1.5" fill="#009e73"/>
<circle cx="628.90" cy="239.96" r="1.5" fill="#009e73"/>
<circle cx="630.91" cy="239.99" r="1.5" fill="#009e73"/>
<circle cx="632.93" cy="222.20" r="1.5" fill="#009e73"/>
<circle cx="634.94" cy="215.86" r="1.5" fill="#009e73"/>
<circle cx="636.95" cy="230.27" r="1.5" fill="#009e73"/>
<circle cx="638.97" cy="224.74" r="1.5" fill="#009e73"/>
<circle cx="640.98" cy="239.97" r="1.5" fill="#009e73"/>
<circle cx="643.00" cy="239.99" r="1.5" fill="#009e73"/>
<circle cx="645.01" cy="226.93" r="1.5" fill="#009e73"/>
<circle cx="647.02" cy="235.91" r="1.5" fill="#009e73"/>
<circle cx="649.04" cy="235.30" r="1.5" fill="#009e73"/>
<circle cx="651.05" cy="236.38" r="1.5" fill="#009e73"/>
<circle cx="653.07" cy="225.16" r="1.5" fill="#009e73"/>
<circle cx="655.08" cy="226.18" r="1.5" fill="#009e73"/>
<circle cx="657.09" cy="226.11" r="1.5" fill="#009e73"/>
<circle cx="659.11" cy="236.07" r="1.5" fill="#009e73"/>
<circle cx="661.12" cy="237.96" r="1.5" fill="#009e73"/>
<circle cx="663.14" cy="239.97" r="1.5" fill="#009e73"/>
<circle cx="665.15" cy="237.07" r="1.5" fill="#009e73"/>
<circle cx="667.16" cy="235.97" r="1.5" fill="#009e73"/>
<circle cx="669.18" cy="236.72" r="1.5" fill="#009e73"/>
<circle cx="671.19" cy="235.15" r="1.5" fill="#009e73"/>
<circle cx="673.21" cy="236.40" r="1.5" fill="#009e73"/>
<circle cx="675.22" cy="219.05" r="1.5" fill="#009e73"/>
<circle cx="677.23" cy="232.81" r="1.5" fill="#009e73"/>
<circle cx="679.25" cy="236.63" r="1.5" fill="#009e73"/>
<circle cx="681.26" cy="237.20" r="1.5" fill="#009e73"/>
<circle cx="683.27" cy="223.91" r="1.5" fill="#009e73"/>
<circle cx="685.29" cy="239.99" r="1.5" fill="#009e73"/>
<circle cx="687.30" cy="232.40" r="1.5" fill="#009e73"/>
<circle cx="689.32" cy="223.57" r="1.5" fill="#009e73"/>
<circle cx="691.33" cy="223.56" r="1.5" fill="#009e73"/>
<circle cx="693.34" cy="222.34" r="1.5" fill="#009e73"/>
<circle cx="695.36" cy="223.30" r="1.5" fill="#009e73"/>
<circle cx="697.37" cy="239.99" r="1.5" fill="#009e73"/>
<circle cx="699.39" cy="236.35" r="1.5" fill="#009e73"/>
<circle cx="701.40" cy="214.67" r="1.5" fill="#009e73"/>
<circle cx="703.41" cy="221.21" r="1.5" fill="#009e73"/>
<circle cx="705.43" cy="219.92" r="1.5" fill="#009e73"/>
<circle cx="707.44" cy="232.08" r="1.5" fill="#009e73"/>
<circle cx="709.46" cy="239.99" r="1.5" fill="#009e73"/>
<circle cx="711.47" cy="231.74" r="1.5" fill="#009e73"/>
<circle cx="713.48" cy="215.54" r="1.5" fill="#009e73"/>
<circle cx="715.50" cy="227.80" r="1.5" fill="#009e73"/>
<circle cx="717.51" cy="226.60" r="1.5" fill="#009e73"/>
<circle cx="719.53" cy="231.52" r="1.5" fill="#009e73"/>
<circle cx="721.54" cy="232.18" r="1.5" fill="#009e73"/>
<circle cx="723.55" cy="232.78" r="1.5" fill="#009e73"/>
<circle cx="725.57" cy="223.50" r="1.5" fill="#009e73"/>
<circle cx="727.58" cy="222.27" r="1.5" fill="#009e73"/>
<circle cx="729.60" cy="225.10" r="1.5" fill="#009e73"/>
<circle cx="731.61" cy="232.49" r="1.5" fill="#009e73"/>
<circle cx="733.62" cy="231.18" r="1.5" fill="#009e73"/>
<circle cx="735.64" cy="224.74" r="1.5" fill="#009e73"/>
<circle cx="737.65" cy="226.74" r="1.5" fill="#009e73"/>
<circle cx="739.66" cy="223.77" r="1.5" fill="#009e73"/>
<circle cx="741.68" cy="232.18" r="1.5" fill="#009e73"/>
<circle cx="743.69" cy="235.24" r="1.5" fill="#009e73"/>
<circle cx="745.71" cy="237.82" r="1.5" fill="#009e73"/>
<circle cx="747.72" cy="237.92" r="1.5" fill="#009e73"/>
<circle cx="749.73" cy="234.49" r="1.5" fill="#009e73"/>
<circle cx="751.75" cy="236.00" r="1.5" fill="#009e73"/>
<circle cx="753.76" cy="239.53" r="1.5" fill="#009e73"/>
<circle cx="755.78" cy="234.62" r="1.5" fill="#009e73"/>
<circle cx="757.79" cy="227.58" r="1.5" fill="#009e73"/>
<circle cx="759.80" cy="230.75" r="1.5" fill="#009e73"/>
<circle cx="761.82" cy="229.82" r="1.5" fill="#009e73"/>
<circle cx="763.83" cy="236.10" r="1.5" fill="#009e73"/>
<circle cx="765.85" cy="236.65" r="1.5" fill="#009e73"/>
<circle cx="767.86" cy="231.80" r="1.5" fill="#009e73"/>
<circle cx="769.87" cy="230.72" r="1.5" fill="#009e73"/>
<circle cx="771.89" cy="232.21" r="1.5" fill="#009e73"/>
<circle cx="773.90" cy="222.32" r="1.5" fill="#009e73"/>
<circle cx="775.92" cy="234.68" r="1.5" fill="#009e73"/>
<circle cx="777.93" cy="236.03" r="1.5" fill="#009e73"/>
<circle cx="779.94" cy="223.15" r="1.5" fill="#009e73"/>
<circle cx="781.96" cy="229.79" r="1.5" fill="#009e73"/>
<circle cx="783.97" cy="231.82" r="1.5" fill="#009e73"/>
<circle cx="785.99" cy="231.09" r="1.5" fill="#009e73"/>
<circle cx="788.00" cy="223.44" r="1.5" fill="#009e73"/>
<circle cx="790.01" cy="223.83" r="1.5" fill="#009e73"/>
<circle cx="792.03" cy="232.59" r="1.5" fill="#009e73"/>
<circle cx="794.04" cy="232.69" r="1.5" fill="#009e73"/>
<circle cx="796.05" cy="229.58" r="1.5" fill="#009e73"/>
<circle cx="798.07" cy="231.94" r="1.5" fill="#009e73"/>
<circle cx="800.08" cy="222.08" r="1.5" fill="#009e73"/>
<circle cx="802.10" cy="215.51" r="1.5" fill="#009e73"/>
<circle cx="804.11" cy="231.43" r="1.5" fill="#009e73"/>
<circle cx="806.12" cy="232.08" r="1.5" fill="#009e73"/>
<circle cx="808.14" cy="232.37" r="1.5" fill="#009e73"/>
<circle cx="810.15" cy="228.58" r="1.5" fill="#009e73"/>
<circle cx="812.17" cy="219.19" r="1.5" fill="#009e73"/>
<circle cx="814.18" cy="227.88" r="1.5" fill="#009e73"/>
<circle cx="816.19" cy="223.32" r="1.5" fill="#009e73"/>
<circle cx="818.21" cy="239.99" r="1.5" fill="#009e73"/>
<circle cx="820.22" cy="231.71" r="1.5" fill="#009e73"/>
<circle cx="822.24" cy="222.86" r="1.5" fill="#009e73"/>
<circle cx="824.25" cy="213.94" r="1.5" fill="#009e73"/>
<circle cx="826.26" cy="232.72" r="1.5" fill="#009e73"/>
<circle cx="828.28" cy="230.74" r="1.5" fill="#009e73"/>
<circle cx="830.29" cy="238.30" r="1.5" fill="#009e73"/>
<circle cx="832.31" cy="231.82" r="1.5" fill="#009e73"/>
<circle cx="834.32" cy="224.09" r="1.5" fill="#009e73"/>
<circle cx="836.33" cy="214.77" r="1.5" fill="#009e73"/>
<circle cx="838.35" cy="228.81" r="1.5" fill="#009e73"/>
<circle cx="840.36" cy="234.62" r="1.5" fill="#009e73"/>
<circle cx="842.38" cy="237.16" r="1.5" fill="#009e73"/>
<circle cx="844.39" cy="239.99" r="1.5" fill="#009e73"/>
<circle cx="846.40" cy="232.24" r="1.5" fill="#009e73"/>
<circle cx="848.42" cy="229.60" r="1.5" fill="#009e73"/>
<circle cx="850.43" cy="235.88" r="1.5" fill="#009e73"/>
<circle cx="852.44" cy="236.87" r="1.5" fill="#009e73"/>
<circle cx="854.46" cy="213.07" r="1.5" fill="#009e73"/>
<circle cx="856.47" cy="238.61" r="1.5" fill="#009e73"/>
<circle cx="858.49" cy="234.99" r="1.5" fill="#009e73"/>
<circle cx="860.50" cy="236.50" r="1.5" fill="#009e73"/>
<circle cx="862.51" cy="232.03" r="1.5" fill="#009e73"/>
<circle cx="864.53" cy="232.09" r="1.5" fill="#009e73"/>
<circle cx="866.54" cy="238.73" r="1.5" fill="#009e73"/>
<circle cx="868.56" cy="234.55" r="1.5" fill="#009e73"/>
<circle cx="870.57" cy="229.39" r="1.5" fill="#009e73"/>
<circle cx="872.58" cy="222.70" r="1.5" fill="#009e73"/>
<circle cx="874.60" cy="234.38" r="1.5" fill="#009e73"/>
<circle cx="876.61" cy="236.81" r="1.5" fill="#009e73"/>
<circle cx="878.63" cy="232.03" r="1.5" fill="#009e73"/>
<circle cx="880.64" cy="232.45" r="1.5" fill="#009e73"/>
<circle cx="882.65" cy="232.34" r="1.5" fill="#009e73"/>
<circle cx="884.67" cy="239.96" r="1.5" fill="#009e73"/>
<circle cx="886.68" cy="216.01" r="1.5" fill="#009e73"/>
<circle cx="888.70" cy="220.86" r="1.5" fill="#009e73"/>
<circle cx="890.71" cy="222.82" r="1.5" fill="#009e73"/>
<circle cx="892.72" cy="231.47" r="1.5" fill="#009e73"/>
<circle cx="894.74" cy="230.73" r="1.5" fill="#009e73"/>
<circle cx="896.75" cy="232.47" r="1.5" fill="#009e73"/>
<circle cx="898.76" cy="215.06" r="1.5" fill="#009e73"/>
<circle cx="900.78" cy="239.96" r="1.5" fill="#009e73"/>
<circle cx="902.79" cy="221.86" r="1.5" fill="#009e73"/>
<circle cx="904.81" cy="231.11" r="1.5" fill="#009e73"/>
<circle cx="906.82" cy="229.31" r="1.5" fill="#009e73"/>
<circle cx="908.83" cy="232.68" r="1.5" fill="#009e73"/>
<circle cx="910.85" cy="215.48" r="1.5" fill="#009e73"/>
<circle cx="912.86" cy="223.87" r="1.5" fill="#009e73"/>
<circle cx="914.88" cy="232.38" r="1.5" fill="#009e73"/>
<circle cx="916.89" cy="229.73" r="1.5" fill="#009e73"/>
<circle cx="918.90" cy="239.25" r="1.5" fill="#009e73"/>
<circle cx="920.92" cy="218.72" r="1.5" fill="#009e73"/>
<circle cx="922.93" cy="230.57" r="1.5" fill="#009e73"/>
<circle cx="924.95" cy="214.10" r="1.5" fill="#009e73"/>
<circle cx="926.96" cy="239.97" r="1.5" fill="#009e73"/>
<circle cx="928.97" cy="231.67" r="1.5" fill="#009e73"/>
<circle cx="930.99" cy="229.67" r="1.5" fill="#009e73"/>
<circle cx="933.00" cy="213.94" r="1.5" fill="#009e73"/>
<circle cx="935.02" cy="232.36" r="1.5" fill="#009e73"/>
<circle cx="937.03" cy="224.47" r="1.5" fill="#009e73"/>
<circle cx="939.04" cy="237.54" r="1.5" fill="#009e73"/>
<circle cx="941.06" cy="234.05" r="1.5" fill="#009e73"/>
<circle cx="943.07" cy="228.71" r="1.5" fill="#009e73"/>
<circle cx="945.09" cy="206.08" r="1.5" fill="#009e73"/>
<circle cx="947.10" cy="228.02" r="1.5" fill="#009e73"/>
<circle cx="949.11" cy="233.75" r="1.5" fill="#009e73"/>
<circle cx="951.13" cy="232.37" r="1.5" fill="#009e73"/>
<circle cx="953.14" cy="230.99" r="1.5" fill="#009e73"/>
<circle cx="955.15" cy="222.20" r="1.5" fill="#009e73"/>
<circle cx="957.17" cy="221.53" r="1.5" fill="#009e73"/>
<circle cx="959.18" cy="231.79" r="1.5" fill="#009e73"/>
<circle cx="961.20" cy="239.99" r="1.5" fill="#009e73"/>
<circle cx="963.21" cy="239.96" r="1.5" fill="#009e73"/>
<circle cx="965.22" cy="222.75" r="1.5" fill="#009e73"/>
<circle cx="967.24" cy="239.96" r="1.5" fill="#009e73"/>
<circle cx="969.25" cy="240.00" r="1.5" fill="#009e73"/>
<text x="65.0" y="262">0s</text>
<text x="291.25" y="262">225s</text>
<text x="517.5" y="262">449s</text>
<text x="743.75" y="262">674s</text>
<text x="970.0" y="262">899s</text>
<text x="60" y="308">Lookup chunk ratio (%): blue=DRAM, green=DAOS; gaps=no lookup</text>
<line x1="65" x2="970" y1="485.0" y2="485.0" stroke="#ddd"/>
<text x="25" y="489.0">0</text>
<line x1="65" x2="970" y1="443.75" y2="443.75" stroke="#ddd"/>
<text x="25" y="447.75">25</text>
<line x1="65" x2="970" y1="402.5" y2="402.5" stroke="#ddd"/>
<text x="25" y="406.5">50</text>
<line x1="65" x2="970" y1="361.25" y2="361.25" stroke="#ddd"/>
<text x="25" y="365.25">75</text>
<line x1="65" x2="970" y1="320.0" y2="320.0" stroke="#ddd"/>
<text x="25" y="324.0">100</text>
<text x="65.0" y="507">0s</text>
<text x="291.25" y="507">225s</text>
<text x="517.5" y="507">449s</text>
<text x="743.75" y="507">674s</text>
<text x="970.0" y="507">899s</text>
<text x="60" y="545">Sampled occupancy, not GPU utilization. Hit ratios use initial CPU-tier candidate chunks.</text></g></svg>